<?xml version="1.0" standalone="no"?>
<!DOCTYPE svg PUBLIC "-//W3C//DTD SVG 1.1//EN" "http://www.w3.org/Graphics/SVG/1.1/DTD/svg11.dtd" >
<svg xmlns="http://www.w3.org/2000/svg" xmlns:xlink="http://www.w3.org/1999/xlink" version="1.1">
<metadata>
Created by FontForge 20170731 at Tue Aug  7 03:24:33 2012
 By Aleksey,,,
Copyright (c) 2004 - 2007 Linotype GmbH, www.linotype.com. All rights reserved.
</metadata>
<defs>
<font id="AvenirNextCondensed-DemiBoldItalic" horiz-adv-x="494" >
  <font-face 
    font-family="Avenir Next Condensed Demi Bold"
    font-weight="600"
    font-style="italic"
    font-stretch="condensed"
    units-per-em="1000"
    panose-1="2 11 7 6 2 2 2 9 2 4"
    ascent="800"
    descent="-200"
    x-height="508"
    cap-height="708"
    bbox="-162 -250 916 957"
    underline-thickness="50"
    underline-position="-200"
    slope="-12"
    unicode-range="U+000D-FB02"
  />
<missing-glyph horiz-adv-x="512" 
d="M222 117v67h56v-67h-56zM225 234l-2 17q0 56 13 81q7 13 18 27.5t28 31.5q16 15 26 26.5t15 21t7 18t2 17.5q0 36 -22.5 60.5t-53.5 24.5t-53.5 -22t-28.5 -73l-50 8q7 72 44 104.5t91 32.5t89 -35.5t35 -95.5q0 -32 -12.5 -58.5t-50.5 -61.5q-37 -33 -43 -52
q-6 -20 -6 -72h-46zM462 50v617h-412v-617h412zM512 718v-718h-512v718h512z" />
    <glyph glyph-name=".notdef" horiz-adv-x="512" 
d="M222 117v67h56v-67h-56zM225 234l-2 17q0 56 13 81q7 13 18 27.5t28 31.5q16 15 26 26.5t15 21t7 18t2 17.5q0 36 -22.5 60.5t-53.5 24.5t-53.5 -22t-28.5 -73l-50 8q7 72 44 104.5t91 32.5t89 -35.5t35 -95.5q0 -32 -12.5 -58.5t-50.5 -61.5q-37 -33 -43 -52
q-6 -20 -6 -72h-46zM462 50v617h-412v-617h412zM512 718v-718h-512v718h512z" />
    <glyph glyph-name=".null" horiz-adv-x="195" 
 />
    <glyph glyph-name=".null" horiz-adv-x="195" 
 />
    <glyph glyph-name="nonmarkingreturn" unicode="&#xd;" horiz-adv-x="0" 
 />
    <glyph glyph-name="space" unicode=" " horiz-adv-x="195" 
 />
    <glyph glyph-name="exclam" unicode="!" horiz-adv-x="307" 
d="M208 227h-110l84 481h109zM194 72q0 -34 -21 -57t-53 -23q-28 0 -43 19t-15 43q0 30 20 54t52 24q29 0 44.5 -17t15.5 -43z" />
    <glyph glyph-name="quotedbl" unicode="&#x22;" horiz-adv-x="364" 
d="M333 451h-82l45 257h82zM193 451h-82l46 257h81z" />
    <glyph glyph-name="numbersign" unicode="#" horiz-adv-x="401" 
d="M409 416h-69l-34 -124h57l-14 -81h-65l-56 -211h-70l56 211h-59l-57 -211h-70l55 211h-60l14 81h70l34 124h-62l14 82h70l56 210h71l-56 -210h58l57 210h71l-58 -210h63zM210 416l-32 -124h58l34 124h-60z" />
    <glyph glyph-name="dollar" unicode="$" 
d="M422 570q-17 20 -39.5 31t-50.5 12l-37 -211q23 -14 45.5 -31t40.5 -39t29 -49.5t11 -63.5q0 -50 -15.5 -90t-42.5 -68t-63.5 -44t-77.5 -19l-12 -70h-49l12 70q-48 5 -89 24.5t-65 48.5l70 81q18 -24 45 -39t57 -16l39 216q-24 13 -46 29.5t-38.5 38t-26 48.5t-9.5 62
q0 45 14.5 83t40 66.5t60 46t74.5 22.5l12 68h49l-12 -67q46 -2 83 -18.5t59 -43.5zM281 610q-29 -11 -47.5 -40.5t-18.5 -71.5q0 -23 9 -42.5t26 -30.5zM319 201q0 31 -11.5 52t-31.5 36l-34 -192q32 5 54.5 34t22.5 70z" />
    <glyph glyph-name="percent" unicode="%" horiz-adv-x="683" 
d="M363 587q0 -45 -12.5 -87.5t-35 -75.5t-54 -53t-70.5 -20q-56 0 -85 38t-29 98q0 44 12.5 86.5t35 76t54.5 54t71 20.5q56 0 84.5 -38.5t28.5 -98.5zM278 581q0 29 -9.5 46.5t-29.5 17.5q-18 0 -32.5 -15t-24 -37.5t-15 -49t-5.5 -49.5q0 -29 10 -47.5t30 -18.5
q18 0 32.5 15.5t24 38.5t14.5 49.5t5 49.5zM652 225q0 -45 -12.5 -87.5t-35 -75.5t-54 -53t-70.5 -20q-55 0 -84 38t-29 98q0 44 12 86.5t34.5 76t54.5 54t71 20.5q56 0 84.5 -38.5t28.5 -98.5zM568 219q0 30 -9.5 47.5t-30.5 17.5q-18 0 -32 -15t-24 -37.5t-15 -49.5
t-5 -50q0 -29 9.5 -47t29.5 -18q18 0 32.5 15t24.5 38t15 49.5t5 49.5zM182 -23l-56 23l421 738l56 -24z" />
    <glyph glyph-name="ampersand" unicode="&#x26;" horiz-adv-x="558" 
d="M429 167l93 -167h-120l-43 81q-30 -42 -70.5 -69.5t-93.5 -27.5q-79 0 -119.5 46.5t-40.5 119.5q0 85 43.5 146.5t114.5 98.5q-37 69 -37 128q0 46 13.5 83.5t37.5 64t57 40.5t72 14q36 0 62.5 -10.5t44 -28.5t26 -43t8.5 -54q0 -39 -13 -71.5t-35.5 -59.5t-52 -49.5
t-62.5 -41.5l66 -119l82 137h107zM382 578q0 29 -14.5 46.5t-38.5 17.5q-18 0 -32 -9.5t-23.5 -25t-15 -35.5t-5.5 -41q0 -24 7 -48t20 -50q21 13 39.5 27.5t32.5 32t22 38.5t8 47zM230 324q-18 -9 -35 -25t-30 -36.5t-20.5 -45t-7.5 -50.5q0 -41 18 -65t57 -24q17 0 32.5 7
t29 18t24.5 25t19 29z" />
    <glyph glyph-name="quotesingle" unicode="'" horiz-adv-x="223" 
d="M193 451h-82l46 257h81z" />
    <glyph glyph-name="parenleft" unicode="(" horiz-adv-x="261" 
d="M296 711q-44 -61 -80 -131t-61.5 -145.5t-39.5 -153t-14 -153.5q0 -72 12.5 -140t35.5 -124l-75 -32q-27 60 -43 138t-16 158q0 82 14.5 164.5t41.5 161.5t66.5 152.5t89.5 138.5l69 -34v0z" />
    <glyph glyph-name="parenright" unicode=")" horiz-adv-x="261" 
d="M265 450q0 -83 -14.5 -165.5t-41.5 -161.5t-66.5 -152.5t-89.5 -138.5l-69 35q44 61 80.5 131t62 145t39.5 153t14 153q0 73 -12.5 141t-36.5 124l75 32q27 -60 43 -138t16 -158z" />
    <glyph glyph-name="asterisk" unicode="*" horiz-adv-x="444" 
d="M347 495l78 -115l-69 -50l-76 117l-76 -113l-70 49l79 113l-125 41l28 78l122 -45v138h85v-138l122 42l25 -78z" />
    <glyph glyph-name="plus" unicode="+" horiz-adv-x="666" 
d="M282 354v220h102v-220h220v-102h-220v-220h-102v220h-220v102h220z" />
    <glyph glyph-name="comma" unicode="," horiz-adv-x="238" 
d="M53 -125h-86l106 266h101z" />
    <glyph glyph-name="hyphen" unicode="-" horiz-adv-x="230" 
d="M200 226h-169l14 88h171z" />
    <glyph glyph-name="period" unicode="." horiz-adv-x="238" 
d="M155 72q0 -34 -20.5 -57t-52.5 -23q-29 0 -44.5 18.5t-15.5 43.5q0 30 20.5 54t52.5 24q29 0 44.5 -17t15.5 -43z" />
    <glyph glyph-name="slash" unicode="/" horiz-adv-x="260" 
d="M26 -36l-67 15l323 780l65 -15z" />
    <glyph glyph-name="zero" unicode="0" 
d="M495 487q0 -43 -5.5 -97t-19 -109.5t-34.5 -108.5t-52 -94t-72.5 -66t-94.5 -25q-49 0 -81.5 19t-52.5 50.5t-28.5 73t-8.5 85.5q0 45 5.5 100t18.5 111t34 109.5t51.5 94.5t72.5 66t96 25q49 0 81.5 -19.5t52.5 -52.5t28.5 -75t8.5 -87zM381 492q0 25 -3 48.5t-11 41.5
t-21 28.5t-33 10.5q-30 0 -52.5 -23.5t-39.5 -60.5t-29 -83t-19.5 -91.5t-10.5 -85t-3 -64.5t3.5 -47.5t11 -40t20.5 -28t32 -10.5q30 0 53 23t40 60t29 82.5t19.5 90.5t10.5 84.5t3 64.5z" />
    <glyph glyph-name="one" unicode="1" 
d="M305 0h-112l101 579l-135 -89l-38 87l206 131h101z" />
    <glyph glyph-name="two" unicode="2" 
d="M486 552q0 -32 -7 -59.5t-24 -57t-45 -64t-70 -79.5l-181 -193h256l-18 -99h-386l18 105l245 261q30 31 49 56t30 45.5t15 38t4 34.5q0 30 -16.5 55t-55.5 25q-37 0 -62 -27.5t-36 -67.5l-106 18q24 85 79.5 131.5t139.5 46.5q41 0 73 -13t53.5 -36t33 -54t11.5 -66z" />
    <glyph glyph-name="three" unicode="3" 
d="M481 557q0 -29 -8.5 -58.5t-25 -55t-41 -44.5t-57.5 -27l-1 -2q44 -12 68 -51.5t24 -90.5q0 -50 -16.5 -93.5t-46.5 -76.5t-72.5 -52t-94.5 -19q-41 0 -74 11.5t-57 31.5t-40 47t-24 59l102 32q9 -33 31.5 -57t62.5 -24q50 0 84 35t34 103q0 45 -27 71t-72 26h-28l14 90
h33q25 0 47 9t38.5 26t26.5 41t10 55q0 14 -5 28.5t-14.5 26t-23.5 18.5t-33 7q-33 0 -54.5 -18.5t-37.5 -46.5l-92 30q32 68 83.5 100.5t117.5 32.5q38 0 69.5 -12t53.5 -33.5t34 -52t12 -66.5z" />
    <glyph glyph-name="four" unicode="4" 
d="M345 0h-102l27 157h-256l17 100l292 451h145l-80 -457h81l-16 -94h-81zM348 598l-216 -347h158l60 347h-2z" />
    <glyph glyph-name="five" unicode="5" 
d="M473 609h-215l-37 -174q16 7 35.5 11t34.5 4q39 0 68 -14t48.5 -38t29 -56.5t9.5 -69.5q0 -64 -19 -116.5t-52 -90t-78 -58t-97 -20.5q-75 0 -119.5 39.5t-58.5 100.5l100 38q8 -34 30 -56t58 -22q29 0 52 13.5t38.5 37t24 53.5t8.5 63q0 50 -25.5 79.5t-71.5 29.5
q-30 0 -68 -9t-67 -22l77 376h312z" />
    <glyph glyph-name="six" unicode="6" 
d="M464 277q0 -57 -16 -109t-47 -92.5t-76.5 -64.5t-104.5 -24q-44 0 -78.5 14.5t-58.5 40.5t-36.5 62t-12.5 79q0 63 24.5 124.5t69.5 126.5l188 274h129l-193 -271l1 -1q14 9 29.5 14t34.5 5q33 0 60 -13.5t46.5 -37t30 -56t10.5 -71.5zM350 274q0 44 -19.5 72.5
t-62.5 28.5q-27 0 -49.5 -16t-38.5 -42t-25 -59t-9 -66q0 -46 21 -76.5t61 -30.5q28 0 51 16t38.5 42.5t24 60.5t8.5 70z" />
    <glyph glyph-name="seven" unicode="7" 
d="M499 619l-327 -619h-122l327 608h-260l17 100h380z" />
    <glyph glyph-name="eight" unicode="8" 
d="M495 564q0 -66 -33.5 -116.5t-90.5 -71.5l-1 -2q38 -15 61 -51.5t23 -89.5t-16 -98t-46 -78t-73.5 -51.5t-98.5 -18.5q-45 0 -80 12.5t-59 35.5t-36.5 55t-12.5 71q0 38 11 73.5t30.5 64t46.5 48.5t58 27l1 2q-35 19 -53.5 51t-18.5 73q0 43 13.5 83t40 70.5t66.5 49
t93 18.5q47 0 80 -12t54 -33.5t31 -50t10 -61.5zM385 557q0 35 -18.5 58t-53.5 23q-23 0 -41.5 -11.5t-31 -30.5t-19.5 -43.5t-7 -51.5q0 -35 17 -60.5t52 -25.5q23 0 42 13t32.5 33.5t20.5 45.5t7 50zM340 237q0 43 -20 68.5t-58 25.5q-25 0 -46.5 -12.5t-37 -34t-24.5 -50
t-9 -59.5q0 -40 19 -69t62 -29q28 0 49.5 14t35.5 36.5t21.5 51t7.5 58.5z" />
    <glyph glyph-name="nine" unicode="9" 
d="M506 529q0 -67 -24.5 -128.5t-69.5 -126.5l-189 -274h-129l200 280l-1 1q-31 -22 -69 -22q-30 0 -56 11t-45.5 33.5t-31 56t-11.5 78.5q0 53 15 104t45 90.5t74.5 64t103.5 24.5q47 0 82 -14t58.5 -39.5t35.5 -60.5t12 -78zM393 519q0 46 -20.5 76t-59.5 30
q-29 0 -51 -16t-37 -41.5t-23 -58t-8 -66.5q0 -44 18.5 -72.5t57.5 -28.5q27 0 50 14.5t39 39t25 56.5t9 67z" />
    <glyph glyph-name="colon" unicode=":" horiz-adv-x="274" 
d="M240 450q0 -34 -20.5 -56t-52.5 -22q-27 0 -42 18t-15 42q0 15 5 29t14.5 25t22.5 17.5t29 6.5q29 0 44 -17t15 -43zM175 77q0 -34 -21 -56.5t-53 -22.5q-27 0 -42 18.5t-15 42.5q0 15 5.5 29t15 25t22.5 17.5t28 6.5q29 0 44.5 -17t15.5 -43z" />
    <glyph glyph-name="semicolon" unicode=";" horiz-adv-x="274" 
d="M240 450q0 -34 -20.5 -56t-52.5 -22q-27 0 -42 18t-15 42q0 15 5 29t14.5 25t22.5 17.5t29 6.5q29 0 44 -17t15 -43zM66 -125h-84l104 266h102z" />
    <glyph glyph-name="less" unicode="&#x3c;" horiz-adv-x="666" 
d="M80 267v72l506 225v-110l-338 -151l338 -151v-110z" />
    <glyph glyph-name="equal" unicode="=" horiz-adv-x="666" 
d="M586 444v-102h-506v102h506zM586 264v-102h-506v102h506z" />
    <glyph glyph-name="greater" unicode="&#x3e;" horiz-adv-x="666" 
d="M586 339v-72l-506 -225v110l338 151l-338 151v110z" />
    <glyph glyph-name="question" unicode="?" horiz-adv-x="393" 
d="M436 573q0 -36 -9.5 -64.5t-26 -52.5t-38.5 -45t-47 -41q-35 -29 -49.5 -53.5t-19.5 -57.5l-5 -33h-93l8 45q8 46 29 83.5t59 71.5l25 22q27 24 45 48.5t18 62.5q0 33 -17.5 53t-47.5 20q-21 0 -37 -8.5t-28 -22t-20 -29.5t-13 -32l-88 25q10 32 27 61t42.5 51.5t59 36
t75.5 13.5q39 0 67.5 -13.5t47 -35.5t27.5 -49.5t9 -55.5zM244 72q0 -34 -21 -57t-52 -23q-29 0 -44.5 19t-15.5 43q0 30 20 54t52 24q29 0 45 -17t16 -43z" />
    <glyph glyph-name="at" unicode="@" horiz-adv-x="634" 
d="M643 480q0 -56 -14 -113t-40 -103t-63.5 -75t-84.5 -29q-32 0 -49 17.5t-17 52.5h-1q-7 -12 -17 -24t-23 -22.5t-28.5 -17t-33.5 -6.5q-44 0 -65 33.5t-21 81.5q0 46 14.5 96t40 92t60 69t74.5 27q35 0 50 -19.5t14 -46.5h3l16 41h71l-57 -152q-11 -29 -20.5 -62.5
t-9.5 -56.5q0 -11 4.5 -18.5t17.5 -7.5q25 0 45.5 25t34.5 61.5t22 77.5t8 74q0 88 -43 137t-130 49q-62 0 -113.5 -34.5t-89 -89.5t-58.5 -124t-21 -138q0 -50 12 -91.5t37 -71.5t62 -46.5t87 -16.5q54 0 99 20.5t78 51.5l31 -58q-44 -37 -96.5 -59.5t-124.5 -22.5
q-68 0 -116.5 22.5t-80.5 61.5t-47 92t-15 114q0 56 12 111.5t34.5 106t54.5 94.5t72 76t87.5 50t100.5 18q60 0 104.5 -17.5t74 -50t44 -78t14.5 -101.5zM411 434q0 22 -8.5 35.5t-28.5 13.5q-21 0 -40.5 -19.5t-34.5 -48t-24 -62.5t-9 -62q0 -23 9 -38.5t29 -15.5
q21 0 40.5 22.5t34.5 54t23.5 65t8.5 55.5z" />
    <glyph glyph-name="A" unicode="A" horiz-adv-x="505" 
d="M343 0l-5 153h-192l-65 -153h-118l314 708h147l35 -708h-116zM330 597h-4l-148 -355h161z" />
    <glyph glyph-name="B" unicode="B" horiz-adv-x="513" 
d="M504 552q0 -38 -10 -68t-27 -52.5t-39.5 -37.5t-47.5 -23v-2q17 -3 34 -13.5t30.5 -28t21.5 -41.5t8 -54q0 -59 -20 -103t-52.5 -72.5t-74.5 -42.5t-87 -14h-208l123 708h181q30 0 60 -8.5t54 -27.5t39 -48.5t15 -71.5zM397 532q0 41 -25 60.5t-63 19.5h-64l-35 -203h70
q21 0 42 7.5t37.5 23t27 38.5t10.5 54zM364 233q0 25 -8 42t-21.5 28t-30.5 16t-34 5h-75l-41 -228h80q57 0 93.5 35.5t36.5 101.5z" />
    <glyph glyph-name="C" unicode="C" horiz-adv-x="490" 
d="M471 561q-17 26 -40 41t-58 15q-47 0 -84 -34t-63 -86.5t-40 -115t-14 -119.5q0 -76 27.5 -123.5t86.5 -47.5q39 0 67 19.5t46 39.5l55 -79q-35 -40 -80.5 -64t-108.5 -24q-51 0 -90.5 20t-66.5 55.5t-41 84.5t-14 108q0 89 24 174t67.5 152t104.5 107.5t134 40.5
q61 0 103 -22t66 -61z" />
    <glyph glyph-name="D" unicode="D" horiz-adv-x="560" 
d="M552 436q0 -84 -20 -162.5t-62 -139.5t-106.5 -97.5t-152.5 -36.5h-179l123 708h171q60 0 103 -20t70 -56t40 -86t13 -110zM436 427q0 83 -30.5 132.5t-93.5 49.5h-61l-87 -510h62q48 0 87 27.5t66.5 73t42 105t14.5 122.5z" />
    <glyph glyph-name="E" unicode="E" horiz-adv-x="431" 
d="M443 608h-196l-35 -195h187l-16 -95h-186l-38 -216h214l-17 -102h-324l123 708h306z" />
    <glyph glyph-name="F" unicode="F" horiz-adv-x="410" 
d="M448 605h-198l-36 -199h187l-17 -99h-186l-53 -307h-113l123 708h312z" />
    <glyph glyph-name="G" unicode="G" horiz-adv-x="541" 
d="M471 560q-31 58 -98 58q-49 0 -87 -35t-64 -88.5t-39.5 -116.5t-13.5 -119q0 -75 29 -121.5t94 -46.5q26 0 46 5.5t36 16.5l32 187h-97l18 100h203l-62 -357q-37 -28 -84 -44t-109 -16q-55 0 -96.5 19.5t-69.5 55t-42 84.5t-14 109q0 87 24 171.5t67.5 152t104 109
t134.5 41.5q63 0 105 -22t64 -62z" />
    <glyph glyph-name="H" unicode="H" horiz-adv-x="589" 
d="M478 0h-114l56 316h-220l-54 -316h-114l123 708h114l-52 -290h219l50 290h115z" />
    <glyph glyph-name="I" unicode="I" horiz-adv-x="258" 
d="M147 0h-115l123 708h115z" />
    <glyph glyph-name="J" unicode="J" horiz-adv-x="409" 
d="M341 206q-9 -51 -23.5 -92.5t-37.5 -70.5t-57 -44.5t-83 -15.5q-35 0 -62.5 10t-48 26.5t-33.5 39t-19 48.5l96 42q6 -23 22 -41t46 -18q22 0 36.5 8.5t24 25t16 40t11.5 53.5l86 491h112z" />
    <glyph glyph-name="K" unicode="K" horiz-adv-x="521" 
d="M315 371l159 -371h-128l-139 346h-2l-60 -346h-113l123 708h113l-55 -309h3l237 309h132z" />
    <glyph glyph-name="L" unicode="L" horiz-adv-x="390" 
d="M343 0h-311l123 708h115l-104 -602h195z" />
    <glyph glyph-name="M" unicode="M" horiz-adv-x="740" 
d="M626 0h-111l97 547h-3l-238 -547h-94l-43 547h-3l-95 -547h-104l125 708h153l45 -521h4l225 521h167z" />
    <glyph glyph-name="N" unicode="N" horiz-adv-x="581" 
d="M470 0h-128l-117 508h-3l-86 -508h-104l123 708h130l113 -512h4l88 512h103z" />
    <glyph glyph-name="O" unicode="O" horiz-adv-x="587" 
d="M579 459q0 -86 -22.5 -171.5t-63.5 -153t-99.5 -109.5t-131.5 -42q-50 0 -89 19t-65.5 53.5t-40.5 83t-14 107.5q0 86 21.5 171.5t62 154t99.5 111t133 42.5q52 0 91.5 -19.5t66 -54.5t39.5 -84t13 -108zM458 442q0 33 -4 65t-14.5 56.5t-30 40t-49.5 15.5q-45 0 -80 -37
t-59 -92.5t-36.5 -120t-12.5 -120.5q0 -33 5 -62t17 -50.5t31.5 -34t47.5 -12.5q43 0 77.5 33.5t58.5 85.5t36.5 114t12.5 119z" />
    <glyph glyph-name="P" unicode="P" horiz-adv-x="486" 
d="M509 536q0 -60 -16.5 -106t-46.5 -77.5t-72 -48t-93 -16.5h-86l-51 -288h-112l123 708h180q35 0 66.5 -10t55.5 -31t38 -53.5t14 -77.5zM399 520q0 42 -20.5 66.5t-62.5 24.5h-66l-39 -230h71q54 0 85.5 37t31.5 102z" />
    <glyph glyph-name="Q" unicode="Q" horiz-adv-x="592" 
d="M579 460q0 -49 -10.5 -103.5t-30 -105t-48 -90.5t-63.5 -60v-3l128 3l-17 -101h-277q-102 0 -155 63.5t-53 182.5q0 86 21.5 171.5t62 154t99.5 111t133 42.5q52 0 91.5 -19.5t66 -54.5t39.5 -84t13 -107zM459 443q0 33 -4 64.5t-14.5 56t-29.5 39.5t-49 15
q-45 0 -80.5 -37t-60 -92.5t-37.5 -120t-13 -120.5q0 -67 26 -105t77 -38q43 0 77.5 33t58.5 83t36.5 109.5t12.5 112.5z" />
    <glyph glyph-name="R" unicode="R" horiz-adv-x="507" 
d="M519 538q0 -85 -40.5 -141t-106.5 -74l87 -323h-119l-74 304h-70l-54 -304h-110l123 708h182q88 0 135 -42t47 -128zM407 523q0 48 -26 68.5t-64 20.5h-68l-39 -223h70q54 0 90.5 35.5t36.5 98.5z" />
    <glyph glyph-name="S" unicode="S" horiz-adv-x="446" 
d="M409 578q-37 46 -96 46q-19 0 -38.5 -7.5t-35 -22t-25.5 -36.5t-10 -51q0 -38 21 -61.5t56 -44.5q22 -14 44.5 -31t40.5 -39.5t29 -51t11 -65.5q0 -57 -18.5 -100t-50 -72t-72.5 -44t-87 -15q-59 0 -108.5 21.5t-76.5 55.5l71 84q20 -26 50 -42t64 -16q48 0 79.5 29
t31.5 83q0 38 -20.5 65t-63.5 53q-22 13 -43 29.5t-37 38t-25.5 49t-9.5 64.5q0 51 17.5 93t47.5 72t71 46.5t89 16.5q54 0 97 -17.5t69 -48.5z" />
    <glyph glyph-name="T" unicode="T" horiz-adv-x="373" 
d="M440 611h-132l-106 -611h-114l107 611h-133l17 97h378z" />
    <glyph glyph-name="U" unicode="U" horiz-adv-x="562" 
d="M506 251q-10 -56 -27.5 -105t-47.5 -85t-74 -57t-106 -21q-50 0 -86 14.5t-60 40.5t-35.5 60.5t-11.5 75.5q0 17 1.5 36t5.5 41l80 457h114l-79 -446q-3 -17 -5 -34.5t-2 -34.5q0 -43 18.5 -73t68.5 -30q33 0 55.5 14t37.5 38t24.5 55t15.5 65l79 446h114z" />
    <glyph glyph-name="V" unicode="V" horiz-adv-x="500" 
d="M281 0h-147l-49 708h123l23 -574h2l223 574h124z" />
    <glyph glyph-name="W" unicode="W" horiz-adv-x="761" 
d="M574 0h-133l-5 540h-2l-194 -540h-133l-12 708h117l-4 -557h3l195 557h121l4 -557h3l189 557h110z" />
    <glyph glyph-name="X" unicode="X" 
d="M336 373l112 -373h-121l-71 277l-170 -277h-122l242 373l-102 335h117l63 -248l150 248h121z" />
    <glyph glyph-name="Y" unicode="Y" horiz-adv-x="460" 
d="M291 273l-48 -273h-113l47 273l-99 435h120l55 -318h2l166 318h125z" />
    <glyph glyph-name="Z" unicode="Z" horiz-adv-x="424" 
d="M457 615l-328 -512h240l-18 -103h-371l16 95l329 513h-220l17 100h350z" />
    <glyph glyph-name="bracketleft" unicode="[" horiz-adv-x="259" 
d="M286 655h-84l-130 -734h86l-13 -77h-179l157 888h178z" />
    <glyph glyph-name="backslash" unicode="\" horiz-adv-x="260" 
d="M142 -36l-47 780l71 15l47 -780z" />
    <glyph glyph-name="bracketright" unicode="]" horiz-adv-x="259" 
d="M158 -156h-177l14 77h86l130 734h-86l13 77h176z" />
    <glyph glyph-name="asciicircum" unicode="^" horiz-adv-x="666" 
d="M69 343l223 365h82l223 -365h-118l-147 239l-145 -239h-118z" />
    <glyph glyph-name="underscore" unicode="_" horiz-adv-x="500" 
d="M500 -150h-500v75h500v-75z" />
    <glyph glyph-name="grave" unicode="`" horiz-adv-x="243" 
d="M47 722h101l103 -144h-81z" />
    <glyph glyph-name="a" unicode="a" horiz-adv-x="425" 
d="M390 383q0 -19 -2.5 -38t-6.5 -42l-34 -200q-5 -28 -9 -58.5t-4 -44.5h-91q0 6 1 16t2.5 21t3 21.5t3.5 18.5h-2q-18 -42 -49 -65t-78 -23q-21 0 -40.5 7t-34.5 21.5t-24 37t-9 54.5q0 59 21 98.5t55 63.5t76.5 34.5t86.5 10.5h30q4 22 5 32.5t1 17.5q0 68 -61 68
q-28 0 -54 -14t-46 -34l-44 68q31 32 75 51.5t86 19.5q75 0 109 -37.5t34 -104.5zM242 241q-24 0 -47 -6t-41 -19t-29 -34.5t-11 -52.5q0 -30 14 -43.5t34 -13.5q23 0 41 13t31.5 33.5t22.5 45t13 48.5l5 29h-33z" />
    <glyph glyph-name="b" unicode="b" horiz-adv-x="495" 
d="M467 346q0 -61 -15 -125.5t-42.5 -117t-67.5 -86.5t-90 -34q-51 0 -75 27t-30 65h-2l-13 -75h-104l132 756h106l-54 -315h2q17 37 48 60.5t74 23.5q65 0 98 -49t33 -130zM357 331q0 45 -15 73t-49 28q-29 0 -52 -25t-39 -62.5t-24.5 -80.5t-8.5 -80q0 -48 15 -77t49 -29
q30 0 53 25.5t39 64t24 82.5t8 81z" />
    <glyph glyph-name="c" unicode="c" horiz-adv-x="344" 
d="M326 403q-9 11 -22.5 17.5t-35.5 6.5q-29 0 -52 -23.5t-39.5 -59.5t-25 -78.5t-8.5 -79.5q0 -48 16 -75.5t58 -27.5q19 0 33 6.5t30 18.5l33 -86q-22 -18 -52 -28.5t-62 -10.5q-43 0 -73.5 15t-50.5 41t-29.5 61.5t-9.5 76.5q0 62 16 124.5t46 112t74 80.5t100 31
q45 0 71.5 -12.5t40.5 -27.5z" />
    <glyph glyph-name="d" unicode="d" horiz-adv-x="491" 
d="M384 0h-104l13 75h-2q-18 -38 -48.5 -65t-80.5 -27q-64 0 -95 50.5t-31 131.5q0 61 14.5 125t42.5 116t68.5 85.5t91.5 33.5q45 0 69 -23t29 -61h3l55 315h107zM332 325q0 47 -15 77t-49 30q-30 0 -53 -25.5t-38.5 -64t-23.5 -82.5t-8 -81q0 -45 14.5 -73t48.5 -28
q29 0 52 25t39 62t24.5 80.5t8.5 79.5z" />
    <glyph glyph-name="e" unicode="e" horiz-adv-x="445" 
d="M420 354q0 -20 -2 -48t-11 -79h-261q-2 -12 -3 -24t-1 -23q0 -44 17 -71.5t53 -27.5q31 0 52 19.5t36 45.5l76 -49q-28 -49 -71 -81.5t-105 -32.5q-78 0 -121 50.5t-43 143.5q0 67 17 129.5t48 111t74.5 78t95.5 29.5q40 0 68.5 -12.5t46.5 -35.5t26 -54.5t8 -68.5z
M322 354q0 38 -13.5 60t-43.5 22q-22 0 -39.5 -13t-31 -33t-22 -43t-11.5 -42h156q3 14 4 26t1 23z" />
    <glyph glyph-name="f" unicode="f" horiz-adv-x="267" 
d="M346 682q-5 2 -12 3t-15 1q-19 0 -32.5 -9t-22.5 -23t-15 -32.5t-9 -37.5l-13 -76h80l-14 -86h-80l-74 -422h-104l73 422h-65l14 86h65l14 76q7 40 20.5 75t34.5 61t51.5 41t71.5 15q13 0 25.5 -1.5t21.5 -4.5z" />
    <glyph glyph-name="g" unicode="g" horiz-adv-x="489" 
d="M382 14q-9 -56 -26.5 -102.5t-46 -80t-69 -52.5t-97.5 -19q-51 0 -95.5 20t-70.5 52l64 79q20 -23 46.5 -38.5t61.5 -15.5q29 0 50.5 11.5t36.5 31.5t24.5 47.5t15.5 59.5l13 68h-2q-19 -36 -47 -61t-78 -25q-63 0 -97 49t-34 130q0 61 14.5 124t42 115t67.5 85t91 33
q44 0 71 -24t33 -62h3l12 69h103zM328 325q0 47 -15.5 77t-49.5 30q-30 0 -52.5 -25.5t-38.5 -64t-24 -82.5t-8 -81q0 -45 15 -73t48 -28q29 0 52.5 25t39.5 62t24.5 80t8.5 80z" />
    <glyph glyph-name="h" unicode="h" horiz-adv-x="500" 
d="M456 402q0 -17 -2 -38.5t-6 -43.5l-56 -320h-107l55 319q2 13 3.5 25t1.5 24q0 25 -10.5 43t-39.5 18q-19 0 -36 -10t-31 -28t-24.5 -43t-15.5 -54l-51 -294h-109l132 756h107l-57 -327h2q19 40 53.5 68t82.5 28q30 0 50.5 -10.5t33 -28t18.5 -39.5t6 -45z" />
    <glyph glyph-name="i" unicode="i" horiz-adv-x="242" 
d="M256 666q0 -32 -20 -54t-50 -22q-28 0 -43 17.5t-15 40.5q0 30 20 53.5t51 23.5q27 0 42 -16.5t15 -42.5zM135 0h-108l89 508h108z" />
    <glyph glyph-name="j" unicode="j" horiz-adv-x="242" 
d="M257 666q0 -32 -20.5 -54t-49.5 -22q-28 0 -43 17.5t-15 40.5q0 30 19.5 53.5t51.5 23.5q27 0 42 -16.5t15 -42.5zM128 -51q-7 -40 -19.5 -74.5t-33.5 -60t-52 -40t-75 -14.5q-11 0 -23.5 1.5t-23.5 4.5l16 100q7 -2 14 -3t13 -1q37 0 52 27.5t23 68.5l97 550h111z" />
    <glyph glyph-name="k" unicode="k" horiz-adv-x="447" 
d="M277 268l124 -268h-117l-107 245h-2l-41 -245h-106l131 756h106l-81 -462h2l170 214h126z" />
    <glyph glyph-name="l" unicode="l" horiz-adv-x="243" 
d="M137 0h-109l132 756h108z" />
    <glyph glyph-name="m" unicode="m" horiz-adv-x="751" 
d="M709 402q0 -17 -2.5 -38.5t-6.5 -43.5l-55 -320h-110l56 319q2 13 3.5 25t1.5 24q0 25 -10 43t-39 18q-16 0 -32.5 -8.5t-30.5 -23t-24.5 -34.5t-14.5 -43l-55 -320h-109l56 319q2 13 3.5 25t1.5 24q0 25 -10.5 43t-39.5 18q-38 0 -67 -38t-40 -97l-51 -294h-108l67 381
q1 10 4 28.5t6 38t5.5 36t3.5 24.5h103q-2 -14 -5 -37.5t-6 -44.5h2q20 42 55.5 70.5t82.5 28.5q28 0 48 -8.5t32 -23.5t18 -35t8 -42q10 22 24.5 41.5t33 34.5t41.5 24t51 9q30 0 51 -10.5t33.5 -28t18.5 -39.5t6 -45z" />
    <glyph glyph-name="n" unicode="n" horiz-adv-x="497" 
d="M455 402q0 -17 -3 -38.5t-7 -43.5l-55 -320h-109l56 319q2 13 3.5 25t1.5 24q0 25 -10.5 43t-39.5 18q-38 0 -67 -38t-40 -97l-51 -294h-108l67 381q1 10 4 28.5t6 38t5.5 36t3.5 24.5h103q-2 -14 -5 -38t-6 -44h2q20 42 55.5 70.5t82.5 28.5q30 0 51 -10.5t34.5 -28
t19.5 -39.5t6 -45z" />
    <glyph glyph-name="o" unicode="o" horiz-adv-x="465" 
d="M437 333q0 -65 -16.5 -128t-47.5 -112.5t-75.5 -79.5t-99.5 -30q-77 0 -119.5 53t-42.5 140q0 66 16.5 129t48 112t75.5 78.5t100 29.5q77 0 119 -52t42 -140zM330 327q0 47 -15 76t-49 29q-29 0 -52 -25.5t-38.5 -63.5t-24 -82t-8.5 -81q0 -45 15 -73.5t48 -28.5
q30 0 53 25t38.5 62t24 80.5t8.5 81.5z" />
    <glyph glyph-name="p" unicode="p" horiz-adv-x="495" 
d="M467 343q0 -62 -14 -125.5t-41.5 -116t-67 -85.5t-90.5 -33q-45 0 -72 24.5t-32 61.5h-2l-54 -309h-106l130 748h103l-13 -73h2q20 39 49 64.5t77 25.5q65 0 98 -50.5t33 -131.5zM358 331q0 45 -15 73t-49 28q-29 0 -52 -25t-39 -62t-24.5 -80t-8.5 -79q0 -49 15.5 -78.5
t48.5 -29.5q30 0 53 25.5t39 63.5t24 82t8 82z" />
    <glyph glyph-name="q" unicode="q" horiz-adv-x="495" 
d="M345 -240h-107l53 309h-2q-17 -36 -47.5 -61t-74.5 -25q-65 0 -98 49t-33 129q0 61 14.5 125.5t42.5 117.5t67.5 87t90.5 34q49 0 73.5 -25.5t29.5 -64.5h3l13 73h103zM333 327q0 46 -15 75.5t-49 29.5q-30 0 -53 -26t-39 -64t-24 -82t-8 -81q0 -45 15 -73t49 -28
q29 0 52 25t39 62.5t24.5 81t8.5 80.5z" />
    <glyph glyph-name="r" unicode="r" horiz-adv-x="299" 
d="M323 413q-5 1 -10 1.5t-13 0.5q-23 0 -42.5 -13.5t-35.5 -36t-27 -51t-16 -58.5l-44 -256h-109l67 381q2 10 5 28.5t6 38t5 36t3 24.5h103q-1 -7 -3 -20.5t-4 -28t-4.5 -28t-3.5 -21.5h3q23 57 56 86t71 29q8 0 16 -2z" />
    <glyph glyph-name="s" unicode="s" horiz-adv-x="366" 
d="M314 406q-14 17 -34 26t-46 9q-29 0 -51 -18.5t-22 -52.5q0 -14 4 -24t11.5 -18t19 -15t27.5 -15q42 -23 70.5 -54.5t28.5 -85.5q0 -46 -16 -79t-42 -54.5t-58.5 -31.5t-66.5 -10q-47 0 -88 18t-64 47l66 70q15 -19 37 -33t54 -14q30 0 52 19.5t22 54.5q0 30 -20 49.5
t-50 34.5q-38 18 -63.5 48.5t-25.5 80.5q0 42 15.5 73t41.5 52t58.5 31.5t67.5 10.5q43 0 76 -13.5t53 -33.5z" />
    <glyph glyph-name="t" unicode="t" horiz-adv-x="277" 
d="M295 421h-85l-46 -260q-2 -9 -3 -19.5t-1 -17.5q0 -40 42 -40q8 0 18 2t18 5l-13 -87q-13 -6 -30 -9t-34 -3q-54 0 -81.5 27.5t-27.5 76.5q0 18 4 41l50 284h-68l15 87h67l23 132h105l-23 -132h86z" />
    <glyph glyph-name="u" unicode="u" horiz-adv-x="497" 
d="M407 127q-2 -10 -4.5 -27.5t-5.5 -36.5t-5.5 -36.5t-3.5 -26.5h-103q2 15 4.5 38.5t6.5 45.5h-2q-20 -42 -55 -71.5t-83 -29.5q-30 0 -51 10.5t-33.5 28t-18.5 40t-6 45.5q0 16 2 38t6 43l56 320h108l-56 -319q-5 -25 -5 -48q0 -26 10.5 -44t39.5 -18q19 0 36.5 10.5
t31.5 28.5t24 42.5t15 53.5l51 294h109z" />
    <glyph glyph-name="v" unicode="v" horiz-adv-x="418" 
d="M234 0h-131l-43 508h108l20 -394h2l152 394h115z" />
    <glyph glyph-name="w" unicode="w" horiz-adv-x="627" 
d="M463 0h-116l-10 359l-141 -359h-115l-16 508h108l-2 -380h2l142 380h96l11 -380h1l133 380h107z" />
    <glyph glyph-name="x" unicode="x" horiz-adv-x="410" 
d="M276 265l84 -265h-114l-49 190l-115 -190h-116l178 267l-79 241h112l43 -169l100 169h118z" />
    <glyph glyph-name="y" unicode="y" horiz-adv-x="418" 
d="M202 -73q-17 -38 -34 -68.5t-39 -52.5t-49 -34t-63 -12q-18 0 -32 2.5t-25 6.5l20 96q10 -6 33 -6q28 0 44 16.5t29 46.5l28 65l-58 521h112l24 -387h2l152 387h111z" />
    <glyph glyph-name="z" unicode="z" horiz-adv-x="360" 
d="M364 421l-250 -329h194l-16 -92h-311l15 91l248 325h-175l16 92h294z" />
    <glyph glyph-name="braceleft" unicode="{" horiz-adv-x="259" 
d="M293 655h-33q-27 0 -42 -22.5t-20 -56.5l-29 -172q-5 -30 -15 -51t-22 -34.5t-24.5 -20.5t-23.5 -9v-2q17 -3 32.5 -20.5t15.5 -56.5q0 -8 -1 -17.5t-3 -20.5l-30 -172q-2 -8 -3 -16t-1 -16q0 -22 9 -34.5t30 -12.5h32l-12 -77h-59q-47 0 -68 26t-21 73q0 12 1.5 25
t3.5 27l28 161q2 12 3 22t1 18q0 30 -11 40t-29 10l14 84q23 0 40.5 18t27.5 72l28 161q12 69 45 110t92 41h60z" />
    <glyph glyph-name="bar" unicode="|" horiz-adv-x="222" 
d="M162 750v-1000h-102v1000h102z" />
    <glyph glyph-name="braceright" unicode="}" horiz-adv-x="259" 
d="M267 246q-12 0 -22.5 -4t-19.5 -14t-16 -27.5t-11 -44.5l-28 -161q-12 -69 -45 -110t-93 -41h-58l15 77h32q28 0 42.5 22.5t20.5 56.5l30 172q5 30 15 51t21.5 34.5t24 20.5t23.5 9v2q-17 3 -32 20.5t-15 56.5q0 19 4 38l29 172q2 8 3 16t1 16q0 22 -8.5 34.5t-29.5 12.5
h-33l13 77h58q48 0 68.5 -26t20.5 -73q0 -12 -1.5 -25t-3.5 -27l-28 -161q-2 -12 -3 -22t-1 -18q1 -30 11.5 -40t28.5 -10z" />
    <glyph glyph-name="asciitilde" unicode="~" horiz-adv-x="666" 
d="M345 354q21 -14 34.5 -21t23 -11t17.5 -4.5t19 -0.5q24 0 43 16.5t35 46.5l77 -65q-35 -58 -74 -80t-79 -22q-32 0 -60 9.5t-61 30.5q-20 12 -34 19.5t-24.5 11t-18.5 4.5t-16 1q-21 0 -40 -14t-38 -49l-77 65q37 61 75.5 82t77.5 21q37 0 63 -10t57 -30z" />
    <glyph glyph-name="uni00A0" unicode="&#xa0;" horiz-adv-x="195" 
 />
    <glyph glyph-name="exclamdown" unicode="&#xa1;" horiz-adv-x="307" 
d="M251 470q0 -30 -20 -54.5t-52 -24.5q-29 0 -45 17t-16 44q0 33 21 56.5t53 23.5q29 0 44 -19.5t15 -42.5zM131 -184h-110l84 481h109z" />
    <glyph glyph-name="cent" unicode="&#xa2;" 
d="M411 393q-8 11 -23.5 21t-36.5 12l-61 -346q23 2 42 13.5t33 28.5l33 -77q-20 -23 -54.5 -37.5t-69.5 -16.5l-11 -63h-53l12 63q-36 2 -62 18.5t-43 42.5t-25 59t-8 68q0 30 5 66t16.5 73t29.5 72t43.5 63t59.5 46t77 21l11 64h53l-11 -64q32 -3 58.5 -17.5t40.5 -33.5z
M300 425q-24 -3 -46 -23t-38.5 -52t-26.5 -73.5t-10 -87.5q0 -42 13.5 -71.5t45.5 -34.5z" />
    <glyph glyph-name="sterling" unicode="&#xa3;" 
d="M453 601q-20 23 -65 23q-26 0 -44 -11.5t-30.5 -30.5t-20 -43.5t-12.5 -50.5l-13 -78h125l-15 -89h-125l-36 -217h189l-18 -104h-386l19 104h86l38 217h-82l15 89h81l15 89q7 41 21.5 82t40 73.5t63.5 52.5t92 20q40 0 70.5 -11t47.5 -28z" />
    <glyph glyph-name="currency" unicode="&#xa4;" 
d="M413 418q15 -29 23.5 -63t8.5 -73q0 -38 -9 -74t-25 -65l68 -83l-51 -64l-70 85q-45 -39 -109 -39q-30 0 -58 11t-51 29l-71 -86l-52 64l70 86q-14 28 -23.5 63t-9.5 73t8.5 71.5t22.5 62.5l-68 82l52 63l68 -81q23 18 51.5 29.5t60.5 11.5t60.5 -11t50.5 -30l67 81
l52 -63zM249 426q-26 0 -45 -11.5t-32 -31t-19 -45.5t-6 -56t6 -56t19 -45.5t32 -31t45 -11.5t45.5 11.5t32 31t19 45.5t6.5 56t-6.5 56t-19 45.5t-32 31t-45.5 11.5z" />
    <glyph glyph-name="yen" unicode="&#xa5;" 
d="M370 407h97l-14 -78h-138l-17 -93h139l-13 -77h-139l-28 -159h-112l28 159h-137l14 77h137l16 93h-137l13 78h100l-81 301h115l62 -294l164 294h118z" />
    <glyph glyph-name="brokenbar" unicode="&#xa6;" horiz-adv-x="222" 
d="M162 675v-350h-102v350h102zM162 175v-350h-102v350h102z" />
    <glyph glyph-name="section" unicode="&#xa7;" horiz-adv-x="493" 
d="M336 153q23 -16 37 -43.5t14 -60.5q0 -52 -20 -88.5t-50.5 -60t-68 -34t-73.5 -10.5q-55 0 -104 20.5t-75 58.5l69 72q19 -29 49 -45t67 -16q20 0 38 5t32 16t22.5 28t8.5 40q0 34 -24.5 56t-82.5 48q-55 26 -81.5 57t-26.5 84q0 30 10 56t26.5 46t37 33.5t42.5 20.5
q-23 15 -36.5 41t-13.5 54q0 43 15.5 79t43 62t65.5 41t83 15q58 0 95 -15.5t62 -44.5l-68 -70q-15 17 -38.5 29t-55.5 12q-17 0 -34.5 -5.5t-31.5 -16.5t-23.5 -27.5t-9.5 -38.5q0 -18 5 -31t17 -24t31.5 -22.5t48.5 -25.5q55 -26 83.5 -63t28.5 -87q0 -30 -9.5 -54.5
t-25.5 -43t-36.5 -30.5t-42.5 -17zM242 392q-31 -4 -56.5 -28t-25.5 -65q0 -36 19.5 -52.5t47.5 -29.5l47 -22q15 1 29.5 8t26 18.5t19 28t7.5 36.5q0 29 -20.5 49t-49.5 35z" />
    <glyph glyph-name="dieresis" unicode="&#xa8;" horiz-adv-x="243" 
d="M171 664q0 -28 -17.5 -47.5t-43.5 -19.5q-25 0 -38 16.5t-13 36.5q0 25 17.5 45.5t43.5 20.5q24 0 37.5 -14.5t13.5 -37.5zM337 664q0 -28 -17.5 -47.5t-43.5 -19.5q-24 0 -37.5 16.5t-13.5 36.5q0 25 17.5 45.5t43.5 20.5q24 0 37.5 -14.5t13.5 -37.5z" />
    <glyph glyph-name="copyright" unicode="&#xa9;" horiz-adv-x="640" 
d="M320 -20q-63 0 -115.5 26t-90 75t-58 118.5t-20.5 155.5t20.5 155.5t58 118t90 75t115.5 26.5t115 -26.5t89.5 -75t58.5 -118t21 -155.5t-21 -155.5t-58.5 -118.5t-89.5 -75t-115 -26zM320 686q-54 0 -97 -25t-73 -69t-46 -104.5t-16 -132.5t16 -132.5t46 -104.5t73 -69
t97 -25t97 25t73 69t46 104.5t16 132.5t-16 132.5t-46 104.5t-73 69t-97 25zM441 189q-18 -27 -44.5 -44t-63.5 -17t-66.5 16.5t-50 46.5t-31.5 72.5t-11 93.5q0 52 11 94.5t31.5 72.5t49.5 46.5t65 16.5t64 -15.5t45 -41.5l-49 -64q-18 36 -57 36q-17 0 -30 -11t-22 -30.5
t-14 -46t-5 -57.5q0 -61 18.5 -102t52.5 -41q20 0 33.5 10.5t22.5 27.5z" />
    <glyph glyph-name="ordfeminine" unicode="&#xaa;" horiz-adv-x="306" 
d="M319 626q0 -10 -1.5 -21.5t-3.5 -25.5l-19 -113q-2 -13 -4.5 -33t-3.5 -29h-69q1 8 2.5 20.5t3.5 20.5h-2q-12 -22 -27 -34.5t-43 -12.5q-29 0 -51 21.5t-22 57.5q0 33 11.5 55.5t31.5 36t46.5 19.5t55.5 6h17q2 8 3 14.5t1 9.5q0 36 -35 36q-16 0 -31.5 -8t-26.5 -18
l-31 52q20 19 46.5 30t54.5 11q50 0 73.5 -26t23.5 -69zM214 542q-24 0 -43.5 -13t-19.5 -40q0 -29 25 -29q22 0 36.5 21.5t19.5 44.5l3 16h-21z" />
    <glyph glyph-name="guillemotleft" unicode="&#xab;" horiz-adv-x="377" 
d="M181 259l143 217l55 -36l-121 -189l54 -187l-65 -26zM35 259l141 217l56 -36l-121 -189l54 -187l-65 -26z" />
    <glyph glyph-name="logicalnot" unicode="&#xac;" horiz-adv-x="666" 
d="M502 342h-440v102h542v-297h-102v195z" />
    <glyph glyph-name="uni00AD" unicode="&#xad;" horiz-adv-x="230" 
d="M200 226h-169l14 88h171z" />
    <glyph glyph-name="registered" unicode="&#xae;" horiz-adv-x="480" 
d="M317 372l-39 98h-15v-98h-59v261h89q31 0 56 -18.5t25 -63.5q0 -28 -11 -45.5t-31 -23.5l46 -110h-61zM315 550q0 17 -9.5 25t-20.5 8h-22v-70h18q14 0 24 8.5t10 28.5zM280 274q-38 0 -69 15.5t-53.5 45t-35 71t-12.5 93.5t12.5 93.5t35 70.5t53.5 45t69 16t69 -16
t53.5 -45t35 -70.5t12.5 -93.5t-12.5 -93.5t-35 -71t-53.5 -45t-69 -15.5zM280 698q-32 0 -58 -15t-44 -41.5t-27.5 -63t-9.5 -79.5t9.5 -79.5t27.5 -63t44 -41.5t58 -15t58 15t44 41.5t27.5 63t9.5 79.5t-9.5 79.5t-27.5 63t-44 41.5t-58 15z" />
    <glyph glyph-name="macron" unicode="&#xaf;" horiz-adv-x="243" 
d="M65 683h273l-12 -65h-272z" />
    <glyph glyph-name="degree" unicode="&#xb0;" horiz-adv-x="314" 
d="M342 600q0 -35 -10.5 -71.5t-30 -65.5t-47.5 -47.5t-62 -18.5q-25 0 -44 10.5t-32.5 27.5t-20.5 40t-7 49q0 36 10.5 72t30 65t47 47t62.5 18q25 0 44.5 -10t32.5 -27t20 -40t7 -49zM286 595q0 35 -14.5 56.5t-39.5 21.5q-20 0 -35.5 -13.5t-27 -34.5t-17.5 -47t-6 -51
q0 -35 13.5 -56t39.5 -21q18 0 34 13t28 34t18.5 46.5t6.5 51.5z" />
    <glyph glyph-name="plusminus" unicode="&#xb1;" horiz-adv-x="666" 
d="M286 574h96v-143h204v-102h-204v-143h-96v143h-206v102h206v143zM80 134h506v-102h-506v102z" />
    <glyph glyph-name="twosuperior" unicode="&#xb2;" horiz-adv-x="317" 
d="M355 610q0 -21 -5 -39t-16.5 -36t-28.5 -38t-41 -45l-104 -105h149l-12 -76h-252l13 78l156 157q32 33 43.5 54t11.5 41q0 17 -9 30t-30 13t-35 -16t-20 -39l-81 12q16 57 54 87.5t92 30.5t84.5 -30t30.5 -79z" />
    <glyph glyph-name="threesuperior" unicode="&#xb3;" horiz-adv-x="317" 
d="M349 618q0 -38 -21 -71t-59 -43l-1 -2q27 -8 41 -32.5t14 -55.5q0 -33 -11 -60.5t-31 -48t-47.5 -31.5t-59.5 -11q-56 0 -87.5 28t-41.5 71l77 22q5 -19 17.5 -33t35.5 -14q28 0 46 20t18 55q0 25 -15 40t-41 15h-20l11 67h23q29 0 48.5 18.5t19.5 53.5q0 15 -10 29
t-31 14q-20 0 -33 -11t-21 -28l-68 22q20 48 55.5 69.5t78.5 21.5q48 0 80.5 -27t32.5 -78z" />
    <glyph glyph-name="acute" unicode="&#xb4;" horiz-adv-x="243" 
d="M120 578l114 144h101l-135 -144h-80z" />
    <glyph glyph-name="mu" unicode="&#xb5;" horiz-adv-x="574" 
d="M240 480l-52 -243q-3 -14 -6 -32t-3 -35q0 -29 13.5 -51.5t53.5 -22.5q30 0 53 10t39.5 27t27.5 39t16 46l56 262h120l-102 -480h-114l16 77h-2q-24 -36 -61 -62.5t-95 -26.5q-18 0 -35 6t-25 18l-51 -240h-120l151 708h120z" />
    <glyph glyph-name="paragraph" unicode="&#xb6;" horiz-adv-x="600" 
d="M246 338q-49 0 -88.5 13.5t-67.5 38t-43.5 58t-15.5 72.5q0 50 17 86t47.5 58.5t73.5 33t95 10.5h269v-834h-90v762h-107v-762h-90v464z" />
    <glyph glyph-name="periodcentered" unicode="&#xb7;" horiz-adv-x="237" 
d="M191 272q0 -33 -20.5 -56t-52.5 -23q-28 0 -43 18.5t-15 42.5q0 15 5.5 29t15 25t22.5 18t28 7q29 0 44.5 -17.5t15.5 -43.5z" />
    <glyph glyph-name="cedilla" unicode="&#xb8;" horiz-adv-x="243" 
d="M30 -232q-23 0 -49.5 4.5t-46.5 15.5l28 48q14 -8 32.5 -11t35.5 -3q21 0 39.5 8t18.5 29q0 17 -11 25t-28 8q-22 0 -41 -8l-20 21l77 95h60l-56 -68q5 1 11 1.5t14 0.5q11 0 23.5 -3t23 -11t17.5 -21.5t7 -33.5q0 -28 -13.5 -46.5t-34 -30t-44 -16t-43.5 -4.5z" />
    <glyph glyph-name="onesuperior" unicode="&#xb9;" horiz-adv-x="317" 
d="M238 268h-88l62 343l-80 -50l-28 64l135 83h76z" />
    <glyph glyph-name="ordmasculine" unicode="&#xba;" horiz-adv-x="306" 
d="M336 600q0 -38 -9 -75t-27.5 -66.5t-46.5 -47.5t-65 -18q-51 0 -75.5 34t-24.5 88q0 40 10.5 77.5t29.5 66t46.5 46t60.5 17.5q50 0 75.5 -34t25.5 -88zM264 598q0 26 -9 42.5t-27 16.5q-17 0 -29.5 -15t-21 -36.5t-13 -46.5t-4.5 -45q0 -26 8.5 -41.5t26.5 -15.5
q16 0 29 14t22 35.5t13.5 46t4.5 45.5z" />
    <glyph glyph-name="guillemotright" unicode="&#xbb;" horiz-adv-x="377" 
d="M201 255l-142 -216l-56 35l121 189l-54 188l65 26zM348 255l-142 -216l-56 35l122 189l-55 188l65 26z" />
    <glyph glyph-name="onequarter" unicode="&#xbc;" horiz-adv-x="741" 
d="M627 0h-80l17 92h-165l12 76l181 272h112l-48 -275h47l-12 -73h-48zM611 356l-121 -191h88l34 191h-1zM168 8l398 726l67 -29l-398 -721zM238 268h-88l62 343l-80 -50l-28 64l135 83h76z" />
    <glyph glyph-name="onehalf" unicode="&#xbd;" horiz-adv-x="741" 
d="M744 339q0 -21 -5 -39t-16.5 -36t-28.5 -38t-41 -45l-104 -105h149l-12 -76h-252l13 78l156 157q32 33 43.5 54t11.5 41q0 17 -9 30t-30 13t-35 -16t-20 -39l-81 12q16 57 54 87.5t92 30.5t84.5 -30t30.5 -79zM168 8l398 726l67 -29l-398 -721zM238 268h-88l62 343
l-80 -50l-28 64l135 83h76z" />
    <glyph glyph-name="threequarters" unicode="&#xbe;" horiz-adv-x="741" 
d="M627 0h-80l17 92h-165l12 76l181 272h112l-48 -275h47l-12 -73h-48zM611 356l-121 -191h88l34 191h-1zM349 618q0 -38 -21 -71t-59 -43l-1 -2q27 -8 41 -32.5t14 -55.5q0 -33 -11 -60.5t-31 -48t-47.5 -31.5t-59.5 -11q-56 0 -87.5 28t-41.5 71l77 22q5 -19 17.5 -33
t35.5 -14q28 0 46 20t18 55q0 25 -15 40t-41 15h-20l11 67h23q29 0 48.5 18.5t19.5 53.5q0 15 -10 29t-31 14q-20 0 -33 -11t-21 -28l-68 22q20 48 55.5 69.5t78.5 21.5q48 0 80.5 -27t32.5 -78zM168 8l398 726l67 -29l-398 -721z" />
    <glyph glyph-name="questiondown" unicode="&#xbf;" horiz-adv-x="393" 
d="M291 471q0 -30 -20 -55t-52 -25q-29 0 -44.5 17.5t-15.5 43.5q0 34 21 57t52 23q29 0 44 -19t15 -42zM322 -40q-10 -32 -27 -62t-42.5 -52.5t-59 -36t-75.5 -13.5q-40 0 -69 13.5t-47.5 35.5t-27 50t-8.5 56q0 35 10 63.5t26.5 53t38.5 45.5t46 41q35 29 50 53.5t20 56.5
l5 34h93l-8 -46q-8 -45 -29 -82.5t-59 -71.5l-25 -22q-28 -24 -45.5 -48.5t-17.5 -63.5q0 -32 17 -52t48 -20q21 0 37 8.5t27.5 21.5t19.5 29.5t13 31.5z" />
    <glyph glyph-name="Agrave" unicode="&#xc0;" horiz-adv-x="505" 
d="M343 0l-5 153h-192l-65 -153h-118l314 708h147l35 -708h-116zM330 597h-4l-148 -355h161zM217 908h101l103 -144h-81z" />
    <glyph glyph-name="Aacute" unicode="&#xc1;" horiz-adv-x="505" 
d="M343 0l-5 153h-192l-65 -153h-118l314 708h147l35 -708h-116zM330 597h-4l-148 -355h161zM291 764l114 144h101l-135 -144h-80z" />
    <glyph glyph-name="Acircumflex" unicode="&#xc2;" horiz-adv-x="505" 
d="M343 0l-5 153h-192l-65 -153h-118l314 708h147l35 -708h-116zM330 597h-4l-148 -355h161zM377 858l-84 -94h-90l134 144h94l82 -144h-83z" />
    <glyph glyph-name="Atilde" unicode="&#xc3;" horiz-adv-x="505" 
d="M343 0l-5 153h-192l-65 -153h-118l314 708h147l35 -708h-116zM330 597h-4l-148 -355h161zM515 887q-11 -53 -38.5 -84t-63.5 -31q-17 0 -32.5 5t-32.5 19q-20 14 -29.5 18t-22.5 4q-28 0 -41 -44h-52q11 51 38 82.5t64 31.5q19 0 33.5 -5.5t31.5 -18.5q20 -14 30 -18
t23 -4q16 0 25 10.5t15 34.5h52z" />
    <glyph glyph-name="Adieresis" unicode="&#xc4;" horiz-adv-x="505" 
d="M343 0l-5 153h-192l-65 -153h-118l314 708h147l35 -708h-116zM330 597h-4l-148 -355h161zM335 851q0 -29 -17.5 -48.5t-43.5 -19.5q-25 0 -38 16t-13 36q0 26 17.5 46.5t43.5 20.5q24 0 37.5 -14.5t13.5 -36.5zM501 851q0 -29 -17.5 -48.5t-43.5 -19.5q-24 0 -37.5 16
t-13.5 36q0 26 17.5 46.5t43.5 20.5q24 0 37.5 -14.5t13.5 -36.5z" />
    <glyph glyph-name="Aring" unicode="&#xc5;" horiz-adv-x="505" 
d="M343 0l-5 153h-192l-65 -153h-118l314 708h147l35 -708h-116zM330 597h-4l-148 -355h161zM460 869q0 -24 -8 -46t-22.5 -38.5t-34.5 -26.5t-43 -10q-42 0 -63 24t-21 62q0 25 8 47.5t22 39t33 26.5t42 10q44 0 65.5 -26t21.5 -62zM419 866q0 21 -11.5 37.5t-36.5 16.5
q-30 0 -46.5 -25.5t-16.5 -56.5q0 -21 11.5 -36t35.5 -15q14 0 26 7t20.5 18t13 25t4.5 29z" />
    <glyph glyph-name="AE" unicode="&#xc6;" horiz-adv-x="674" 
d="M686 608h-188l-35 -195h176l-15 -95h-177l-36 -216h203l-18 -102h-310l26 151h-159l-78 -151h-120l375 708h373zM385 608l-187 -363h130l64 363h-7z" />
    <glyph glyph-name="Ccedilla" unicode="&#xc7;" horiz-adv-x="490" 
d="M225 -232q-23 0 -49.5 4.5t-46.5 15.5l28 48q14 -8 32.5 -11t35.5 -3q21 0 39.5 8t18.5 29q0 17 -11 25t-28 8q-22 0 -41 -8l-20 21l64 79q-47 4 -83.5 25t-61 56t-37 82.5t-12.5 103.5q0 89 24 174t67.5 152t104.5 107.5t134 40.5q61 0 103 -22t66 -61l-81 -81
q-17 26 -40 41t-58 15q-47 0 -84 -34t-63 -86.5t-40 -115t-14 -119.5q0 -76 27.5 -123.5t86.5 -47.5q39 0 67 19.5t46 39.5l55 -79q-29 -32 -64 -54t-81 -30l-45 -55q5 1 11 1.5t14 0.5q11 0 23.5 -3t23 -11t17.5 -21.5t7 -33.5q0 -28 -13.5 -46.5t-34 -30t-44 -16
t-43.5 -4.5z" />
    <glyph glyph-name="Egrave" unicode="&#xc8;" horiz-adv-x="431" 
d="M443 608h-196l-35 -195h187l-16 -95h-186l-38 -216h214l-17 -102h-324l123 708h306zM173 908h101l103 -144h-81z" />
    <glyph glyph-name="Eacute" unicode="&#xc9;" horiz-adv-x="431" 
d="M443 608h-196l-35 -195h187l-16 -95h-186l-38 -216h214l-17 -102h-324l123 708h306zM251 764l114 144h101l-135 -144h-80z" />
    <glyph glyph-name="Ecircumflex" unicode="&#xca;" horiz-adv-x="431" 
d="M443 608h-196l-35 -195h187l-16 -95h-186l-38 -216h214l-17 -102h-324l123 708h306zM333 858l-84 -94h-90l134 144h94l82 -144h-83z" />
    <glyph glyph-name="Edieresis" unicode="&#xcb;" horiz-adv-x="431" 
d="M443 608h-196l-35 -195h187l-16 -95h-186l-38 -216h214l-17 -102h-324l123 708h306zM297 851q0 -29 -17.5 -48.5t-43.5 -19.5q-25 0 -38 16t-13 36q0 26 17.5 46.5t43.5 20.5q24 0 37.5 -14.5t13.5 -36.5zM463 851q0 -29 -17.5 -48.5t-43.5 -19.5q-24 0 -37.5 16
t-13.5 36q0 26 17.5 46.5t43.5 20.5q24 0 37.5 -14.5t13.5 -36.5z" />
    <glyph glyph-name="Igrave" unicode="&#xcc;" horiz-adv-x="258" 
d="M147 0h-115l123 708h115zM64 908h101l103 -144h-81z" />
    <glyph glyph-name="Iacute" unicode="&#xcd;" horiz-adv-x="258" 
d="M147 0h-115l123 708h115zM160 764l114 144h101l-135 -144h-80z" />
    <glyph glyph-name="Icircumflex" unicode="&#xce;" horiz-adv-x="258" 
d="M147 0h-115l123 708h115zM235 858l-84 -94h-90l134 144h94l82 -144h-83z" />
    <glyph glyph-name="Idieresis" unicode="&#xcf;" horiz-adv-x="258" 
d="M147 0h-115l123 708h115zM199 851q0 -29 -17.5 -48.5t-43.5 -19.5q-25 0 -38 16t-13 36q0 26 17.5 46.5t43.5 20.5q24 0 37.5 -14.5t13.5 -36.5zM365 851q0 -29 -17.5 -48.5t-43.5 -19.5q-24 0 -37.5 16t-13.5 36q0 26 17.5 46.5t43.5 20.5q24 0 37.5 -14.5t13.5 -36.5z
" />
    <glyph glyph-name="Eth" unicode="&#xd0;" horiz-adv-x="560" 
d="M552 436q0 -84 -20 -162.5t-62 -139.5t-106.5 -97.5t-152.5 -36.5h-179l57 324h-55l13 77h55l53 307h171q60 0 103 -20t70 -56t40 -86t13 -110zM436 427q0 83 -30.5 132.5t-93.5 49.5h-61l-37 -208h115l-13 -77h-114l-38 -225h62q48 0 87 27.5t66.5 73t42 105t14.5 122.5
z" />
    <glyph glyph-name="Ntilde" unicode="&#xd1;" horiz-adv-x="581" 
d="M470 0h-128l-117 508h-3l-86 -508h-104l123 708h130l113 -512h4l88 512h103zM541 887q-11 -53 -38.5 -84t-63.5 -31q-17 0 -32.5 5t-32.5 19q-20 14 -29.5 18t-22.5 4q-28 0 -41 -44h-52q11 51 38 82.5t64 31.5q19 0 33.5 -5.5t31.5 -18.5q20 -14 30 -18t23 -4
q16 0 25 10.5t15 34.5h52z" />
    <glyph glyph-name="Ograve" unicode="&#xd2;" horiz-adv-x="587" 
d="M579 459q0 -86 -22.5 -171.5t-63.5 -153t-99.5 -109.5t-131.5 -42q-50 0 -89 19t-65.5 53.5t-40.5 83t-14 107.5q0 86 21.5 171.5t62 154t99.5 111t133 42.5q52 0 91.5 -19.5t66 -54.5t39.5 -84t13 -108zM458 442q0 33 -4 65t-14.5 56.5t-30 40t-49.5 15.5q-45 0 -80 -37
t-59 -92.5t-36.5 -120t-12.5 -120.5q0 -33 5 -62t17 -50.5t31.5 -34t47.5 -12.5q43 0 77.5 33.5t58.5 85.5t36.5 114t12.5 119zM253 908h101l103 -144h-81z" />
    <glyph glyph-name="Oacute" unicode="&#xd3;" horiz-adv-x="587" 
d="M579 459q0 -86 -22.5 -171.5t-63.5 -153t-99.5 -109.5t-131.5 -42q-50 0 -89 19t-65.5 53.5t-40.5 83t-14 107.5q0 86 21.5 171.5t62 154t99.5 111t133 42.5q52 0 91.5 -19.5t66 -54.5t39.5 -84t13 -108zM458 442q0 33 -4 65t-14.5 56.5t-30 40t-49.5 15.5q-45 0 -80 -37
t-59 -92.5t-36.5 -120t-12.5 -120.5q0 -33 5 -62t17 -50.5t31.5 -34t47.5 -12.5q43 0 77.5 33.5t58.5 85.5t36.5 114t12.5 119zM322 764l114 144h101l-135 -144h-80z" />
    <glyph glyph-name="Ocircumflex" unicode="&#xd4;" horiz-adv-x="587" 
d="M579 459q0 -86 -22.5 -171.5t-63.5 -153t-99.5 -109.5t-131.5 -42q-50 0 -89 19t-65.5 53.5t-40.5 83t-14 107.5q0 86 21.5 171.5t62 154t99.5 111t133 42.5q52 0 91.5 -19.5t66 -54.5t39.5 -84t13 -108zM458 442q0 33 -4 65t-14.5 56.5t-30 40t-49.5 15.5q-45 0 -80 -37
t-59 -92.5t-36.5 -120t-12.5 -120.5q0 -33 5 -62t17 -50.5t31.5 -34t47.5 -12.5q43 0 77.5 33.5t58.5 85.5t36.5 114t12.5 119zM412 858l-84 -94h-90l134 144h94l82 -144h-83z" />
    <glyph glyph-name="Otilde" unicode="&#xd5;" horiz-adv-x="587" 
d="M579 459q0 -86 -22.5 -171.5t-63.5 -153t-99.5 -109.5t-131.5 -42q-50 0 -89 19t-65.5 53.5t-40.5 83t-14 107.5q0 86 21.5 171.5t62 154t99.5 111t133 42.5q52 0 91.5 -19.5t66 -54.5t39.5 -84t13 -108zM458 442q0 33 -4 65t-14.5 56.5t-30 40t-49.5 15.5q-45 0 -80 -37
t-59 -92.5t-36.5 -120t-12.5 -120.5q0 -33 5 -62t17 -50.5t31.5 -34t47.5 -12.5q43 0 77.5 33.5t58.5 85.5t36.5 114t12.5 119zM548 887q-11 -53 -38.5 -84t-63.5 -31q-17 0 -32.5 5t-32.5 19q-20 14 -29.5 18t-22.5 4q-28 0 -41 -44h-52q11 51 38 82.5t64 31.5
q19 0 33.5 -5.5t31.5 -18.5q20 -14 30 -18t23 -4q16 0 25 10.5t15 34.5h52z" />
    <glyph glyph-name="Odieresis" unicode="&#xd6;" horiz-adv-x="587" 
d="M579 459q0 -86 -22.5 -171.5t-63.5 -153t-99.5 -109.5t-131.5 -42q-50 0 -89 19t-65.5 53.5t-40.5 83t-14 107.5q0 86 21.5 171.5t62 154t99.5 111t133 42.5q52 0 91.5 -19.5t66 -54.5t39.5 -84t13 -108zM458 442q0 33 -4 65t-14.5 56.5t-30 40t-49.5 15.5q-45 0 -80 -37
t-59 -92.5t-36.5 -120t-12.5 -120.5q0 -33 5 -62t17 -50.5t31.5 -34t47.5 -12.5q43 0 77.5 33.5t58.5 85.5t36.5 114t12.5 119zM373 851q0 -29 -17.5 -48.5t-43.5 -19.5q-25 0 -38 16t-13 36q0 26 17.5 46.5t43.5 20.5q24 0 37.5 -14.5t13.5 -36.5zM539 851
q0 -29 -17.5 -48.5t-43.5 -19.5q-24 0 -37.5 16t-13.5 36q0 26 17.5 46.5t43.5 20.5q24 0 37.5 -14.5t13.5 -36.5z" />
    <glyph glyph-name="multiply" unicode="&#xd7;" horiz-adv-x="666" 
d="M333 374l182 182l70 -70l-181 -181l185 -186l-74 -74l-183 181l-181 -181l-74 73l185 182l-184 186l72 71z" />
    <glyph glyph-name="Oslash" unicode="&#xd8;" horiz-adv-x="587" 
d="M579 459q0 -86 -22.5 -171.5t-63.5 -153t-100 -109.5t-131 -42q-86 0 -139 53l-53 -78l-56 28l73 101q-34 64 -34 159q0 86 21.5 171.5t62 154t99.5 111t133 42.5q81 0 132 -48l50 73l54 -28l-66 -92q40 -69 40 -171zM461 442q0 41 -6 77l-262 -386q25 -46 79 -46
q44 0 79 34t59.5 86t37.5 115t13 120zM169 247q0 -27 3 -49l260 385q-12 18 -29.5 28.5t-42.5 10.5q-46 0 -81.5 -37t-60 -93.5t-37 -122t-12.5 -122.5z" />
    <glyph glyph-name="Ugrave" unicode="&#xd9;" horiz-adv-x="562" 
d="M506 251q-10 -56 -27.5 -105t-47.5 -85t-74 -57t-106 -21q-50 0 -86 14.5t-60 40.5t-35.5 60.5t-11.5 75.5q0 17 1.5 36t5.5 41l80 457h114l-79 -446q-3 -17 -5 -34.5t-2 -34.5q0 -43 18.5 -73t68.5 -30q33 0 55.5 14t37.5 38t24.5 55t15.5 65l79 446h114zM224 908h101
l103 -144h-81z" />
    <glyph glyph-name="Uacute" unicode="&#xda;" horiz-adv-x="562" 
d="M506 251q-10 -56 -27.5 -105t-47.5 -85t-74 -57t-106 -21q-50 0 -86 14.5t-60 40.5t-35.5 60.5t-11.5 75.5q0 17 1.5 36t5.5 41l80 457h114l-79 -446q-3 -17 -5 -34.5t-2 -34.5q0 -43 18.5 -73t68.5 -30q33 0 55.5 14t37.5 38t24.5 55t15.5 65l79 446h114zM315 764
l114 144h101l-135 -144h-80z" />
    <glyph glyph-name="Ucircumflex" unicode="&#xdb;" horiz-adv-x="562" 
d="M506 251q-10 -56 -27.5 -105t-47.5 -85t-74 -57t-106 -21q-50 0 -86 14.5t-60 40.5t-35.5 60.5t-11.5 75.5q0 17 1.5 36t5.5 41l80 457h114l-79 -446q-3 -17 -5 -34.5t-2 -34.5q0 -43 18.5 -73t68.5 -30q33 0 55.5 14t37.5 38t24.5 55t15.5 65l79 446h114zM393 858
l-84 -94h-90l134 144h94l82 -144h-83z" />
    <glyph glyph-name="Udieresis" unicode="&#xdc;" horiz-adv-x="562" 
d="M506 251q-10 -56 -27.5 -105t-47.5 -85t-74 -57t-106 -21q-50 0 -86 14.5t-60 40.5t-35.5 60.5t-11.5 75.5q0 17 1.5 36t5.5 41l80 457h114l-79 -446q-3 -17 -5 -34.5t-2 -34.5q0 -43 18.5 -73t68.5 -30q33 0 55.5 14t37.5 38t24.5 55t15.5 65l79 446h114zM357 851
q0 -29 -17.5 -48.5t-43.5 -19.5q-25 0 -38 16t-13 36q0 26 17.5 46.5t43.5 20.5q24 0 37.5 -14.5t13.5 -36.5zM523 851q0 -29 -17.5 -48.5t-43.5 -19.5q-24 0 -37.5 16t-13.5 36q0 26 17.5 46.5t43.5 20.5q24 0 37.5 -14.5t13.5 -36.5z" />
    <glyph glyph-name="Yacute" unicode="&#xdd;" horiz-adv-x="460" 
d="M291 273l-48 -273h-113l47 273l-99 435h120l55 -318h2l166 318h125zM268 764l114 144h101l-135 -144h-80z" />
    <glyph glyph-name="Thorn" unicode="&#xde;" horiz-adv-x="485" 
d="M487 421q0 -59 -16.5 -105t-46.5 -77.5t-72 -48t-92 -16.5h-87l-30 -174h-111l123 708h110l-19 -115h67q35 0 66.5 -10t55.5 -31t38 -53.5t14 -77.5zM378 406q0 42 -20.5 66.5t-62.5 24.5h-67l-39 -231h71q55 0 86.5 37t31.5 103z" />
    <glyph glyph-name="germandbls" unicode="&#xdf;" horiz-adv-x="482" 
d="M487 608q0 -34 -8.5 -65.5t-25 -56.5t-41.5 -43t-59 -25q42 -12 71.5 -53.5t29.5 -107.5q0 -50 -14 -98t-42 -85.5t-71 -60t-101 -22.5q-14 0 -28.5 2.5t-24.5 4.5l16 92q9 -2 17.5 -3t15.5 -1q33 0 57 14.5t39.5 38.5t23.5 54t8 62q0 50 -23 81.5t-67 31.5h-16l16 90h15
q22 0 42 10t35.5 28t24.5 42.5t9 53.5q0 15 -3 29.5t-10.5 26t-19.5 19t-31 7.5q-24 0 -41 -13.5t-29 -35t-20 -49.5t-13 -57l-90 -519h-105l89 512q9 54 25 100.5t41.5 81t63 54.5t88.5 20q43 0 73 -13.5t48.5 -35.5t26.5 -51t8 -60z" />
    <glyph glyph-name="agrave" unicode="&#xe0;" horiz-adv-x="425" 
d="M390 383q0 -19 -2.5 -38t-6.5 -42l-34 -200q-5 -28 -9 -58.5t-4 -44.5h-91q0 6 1 16t2.5 21t3 21.5t3.5 18.5h-2q-18 -42 -49 -65t-78 -23q-21 0 -40.5 7t-34.5 21.5t-24 37t-9 54.5q0 59 21 98.5t55 63.5t76.5 34.5t86.5 10.5h30q4 22 5 32.5t1 17.5q0 68 -61 68
q-28 0 -54 -14t-46 -34l-44 68q31 32 75 51.5t86 19.5q75 0 109 -37.5t34 -104.5zM242 241q-24 0 -47 -6t-41 -19t-29 -34.5t-11 -52.5q0 -30 14 -43.5t34 -13.5q23 0 41 13t31.5 33.5t22.5 45t13 48.5l5 29h-33zM114 722h101l103 -144h-81z" />
    <glyph glyph-name="aacute" unicode="&#xe1;" horiz-adv-x="425" 
d="M390 383q0 -19 -2.5 -38t-6.5 -42l-34 -200q-5 -28 -9 -58.5t-4 -44.5h-91q0 6 1 16t2.5 21t3 21.5t3.5 18.5h-2q-18 -42 -49 -65t-78 -23q-21 0 -40.5 7t-34.5 21.5t-24 37t-9 54.5q0 59 21 98.5t55 63.5t76.5 34.5t86.5 10.5h30q4 22 5 32.5t1 17.5q0 68 -61 68
q-28 0 -54 -14t-46 -34l-44 68q31 32 75 51.5t86 19.5q75 0 109 -37.5t34 -104.5zM242 241q-24 0 -47 -6t-41 -19t-29 -34.5t-11 -52.5q0 -30 14 -43.5t34 -13.5q23 0 41 13t31.5 33.5t22.5 45t13 48.5l5 29h-33zM209 578l114 144h101l-135 -144h-80z" />
    <glyph glyph-name="acircumflex" unicode="&#xe2;" horiz-adv-x="425" 
d="M390 383q0 -19 -2.5 -38t-6.5 -42l-34 -200q-5 -28 -9 -58.5t-4 -44.5h-91q0 6 1 16t2.5 21t3 21.5t3.5 18.5h-2q-18 -42 -49 -65t-78 -23q-21 0 -40.5 7t-34.5 21.5t-24 37t-9 54.5q0 59 21 98.5t55 63.5t76.5 34.5t86.5 10.5h30q4 22 5 32.5t1 17.5q0 68 -61 68
q-28 0 -54 -14t-46 -34l-44 68q31 32 75 51.5t86 19.5q75 0 109 -37.5t34 -104.5zM242 241q-24 0 -47 -6t-41 -19t-29 -34.5t-11 -52.5q0 -30 14 -43.5t34 -13.5q23 0 41 13t31.5 33.5t22.5 45t13 48.5l5 29h-33zM287 672l-84 -94h-90l134 144h94l82 -144h-83z" />
    <glyph glyph-name="atilde" unicode="&#xe3;" horiz-adv-x="425" 
d="M390 383q0 -19 -2.5 -38t-6.5 -42l-34 -200q-5 -28 -9 -58.5t-4 -44.5h-91q0 6 1 16t2.5 21t3 21.5t3.5 18.5h-2q-18 -42 -49 -65t-78 -23q-21 0 -40.5 7t-34.5 21.5t-24 37t-9 54.5q0 59 21 98.5t55 63.5t76.5 34.5t86.5 10.5h30q4 22 5 32.5t1 17.5q0 68 -61 68
q-28 0 -54 -14t-46 -34l-44 68q31 32 75 51.5t86 19.5q75 0 109 -37.5t34 -104.5zM242 241q-24 0 -47 -6t-41 -19t-29 -34.5t-11 -52.5q0 -30 14 -43.5t34 -13.5q23 0 41 13t31.5 33.5t22.5 45t13 48.5l5 29h-33zM423 703q-11 -53 -38.5 -84t-63.5 -31q-17 0 -32.5 5
t-32.5 19q-20 14 -29.5 18t-22.5 4q-28 0 -41 -44h-52q11 51 38 82.5t64 31.5q19 0 33.5 -5.5t31.5 -18.5q20 -14 30 -18t23 -4q16 0 25 10.5t15 34.5h52z" />
    <glyph glyph-name="adieresis" unicode="&#xe4;" horiz-adv-x="425" 
d="M390 383q0 -19 -2.5 -38t-6.5 -42l-34 -200q-5 -28 -9 -58.5t-4 -44.5h-91q0 6 1 16t2.5 21t3 21.5t3.5 18.5h-2q-18 -42 -49 -65t-78 -23q-21 0 -40.5 7t-34.5 21.5t-24 37t-9 54.5q0 59 21 98.5t55 63.5t76.5 34.5t86.5 10.5h30q4 22 5 32.5t1 17.5q0 68 -61 68
q-28 0 -54 -14t-46 -34l-44 68q31 32 75 51.5t86 19.5q75 0 109 -37.5t34 -104.5zM242 241q-24 0 -47 -6t-41 -19t-29 -34.5t-11 -52.5q0 -30 14 -43.5t34 -13.5q23 0 41 13t31.5 33.5t22.5 45t13 48.5l5 29h-33zM241 664q0 -28 -17.5 -47.5t-43.5 -19.5q-25 0 -38 16.5
t-13 36.5q0 25 17.5 45.5t43.5 20.5q24 0 37.5 -14.5t13.5 -37.5zM407 664q0 -28 -17.5 -47.5t-43.5 -19.5q-24 0 -37.5 16.5t-13.5 36.5q0 25 17.5 45.5t43.5 20.5q24 0 37.5 -14.5t13.5 -37.5z" />
    <glyph glyph-name="aring" unicode="&#xe5;" horiz-adv-x="425" 
d="M390 383q0 -19 -2.5 -38t-6.5 -42l-34 -200q-5 -28 -9 -58.5t-4 -44.5h-91q0 6 1 16t2.5 21t3 21.5t3.5 18.5h-2q-18 -42 -49 -65t-78 -23q-21 0 -40.5 7t-34.5 21.5t-24 37t-9 54.5q0 59 21 98.5t55 63.5t76.5 34.5t86.5 10.5h30q4 22 5 32.5t1 17.5q0 68 -61 68
q-28 0 -54 -14t-46 -34l-44 68q31 32 75 51.5t86 19.5q75 0 109 -37.5t34 -104.5zM242 241q-24 0 -47 -6t-41 -19t-29 -34.5t-11 -52.5q0 -30 14 -43.5t34 -13.5q23 0 41 13t31.5 33.5t22.5 45t13 48.5l5 29h-33zM366 683q0 -24 -8 -46t-22.5 -38.5t-34.5 -26.5t-43 -10
q-42 0 -63 24t-21 62q0 25 8 47.5t22 39.5t33 26.5t42 9.5q44 0 65.5 -25.5t21.5 -62.5zM325 680q0 21 -11.5 37.5t-36.5 16.5q-30 0 -46.5 -25.5t-16.5 -56.5q0 -21 11.5 -36t35.5 -15q14 0 26 7t20.5 18t13 25t4.5 29z" />
    <glyph glyph-name="ae" unicode="&#xe6;" horiz-adv-x="671" 
d="M646 354q0 -20 -2 -48t-11 -79h-261q-2 -12 -3 -24t-1 -23q0 -44 17 -71.5t53 -27.5q31 0 52.5 19.5t35.5 45.5l76 -49q-28 -49 -70.5 -81.5t-106.5 -32.5q-48 0 -83 30t-44 79q-21 -51 -60.5 -80t-101.5 -29q-24 0 -45.5 8t-38 23.5t-26.5 39.5t-10 56q0 57 20.5 95
t54 60.5t76 32t86.5 9.5h30q5 29 6 41.5t1 19.5q0 66 -59 66q-28 0 -54.5 -13.5t-46.5 -33.5l-45 67q32 32 76.5 51.5t87.5 19.5q58 0 85 -23.5t31 -64.5q16 36 52 62t81 26q40 0 68 -12.5t46 -35.5t26 -54.5t8 -68.5zM548 354q0 38 -13.5 60t-43.5 22q-22 0 -39.5 -13
t-31 -33t-22 -43t-11.5 -42h156q3 14 4 26t1 23zM239 229q-24 0 -46.5 -5t-40 -16.5t-28.5 -30t-11 -46.5q0 -30 14 -44.5t35 -14.5q23 0 40.5 13t30.5 32t21.5 41.5t12.5 41.5l6 29h-34z" />
    <glyph glyph-name="ccedilla" unicode="&#xe7;" horiz-adv-x="344" 
d="M141 -232q-23 0 -49.5 4.5t-46.5 15.5l28 48q14 -8 32.5 -11t35.5 -3q21 0 39.5 8t18.5 29q0 17 -11 25t-28 8q-22 0 -41 -8l-20 21l65 81q-33 6 -57.5 22.5t-40 42t-23 57.5t-7.5 69q0 62 16 124.5t46 112t74 80.5t100 31q45 0 71.5 -12.5t40.5 -27.5l-58 -82
q-9 11 -22.5 17.5t-35.5 6.5q-29 0 -52 -23.5t-39.5 -59.5t-25 -78.5t-8.5 -79.5q0 -48 16 -75.5t58 -27.5q19 0 33 6.5t30 18.5l33 -86q-37 -31 -90 -37l-43 -53q5 1 11 1.5t14 0.5q11 0 23.5 -3t23 -11t17.5 -21.5t7 -33.5q0 -28 -13.5 -46.5t-34 -30t-44 -16t-43.5 -4.5z
" />
    <glyph glyph-name="egrave" unicode="&#xe8;" horiz-adv-x="445" 
d="M420 354q0 -20 -2 -48t-11 -79h-261q-2 -12 -3 -24t-1 -23q0 -44 17 -71.5t53 -27.5q31 0 52 19.5t36 45.5l76 -49q-28 -49 -71 -81.5t-105 -32.5q-78 0 -121 50.5t-43 143.5q0 67 17 129.5t48 111t74.5 78t95.5 29.5q40 0 68.5 -12.5t46.5 -35.5t26 -54.5t8 -68.5z
M322 354q0 38 -13.5 60t-43.5 22q-22 0 -39.5 -13t-31 -33t-22 -43t-11.5 -42h156q3 14 4 26t1 23zM127 722h101l103 -144h-81z" />
    <glyph glyph-name="eacute" unicode="&#xe9;" horiz-adv-x="445" 
d="M420 354q0 -20 -2 -48t-11 -79h-261q-2 -12 -3 -24t-1 -23q0 -44 17 -71.5t53 -27.5q31 0 52 19.5t36 45.5l76 -49q-28 -49 -71 -81.5t-105 -32.5q-78 0 -121 50.5t-43 143.5q0 67 17 129.5t48 111t74.5 78t95.5 29.5q40 0 68.5 -12.5t46.5 -35.5t26 -54.5t8 -68.5z
M322 354q0 38 -13.5 60t-43.5 22q-22 0 -39.5 -13t-31 -33t-22 -43t-11.5 -42h156q3 14 4 26t1 23zM248 578l114 144h101l-135 -144h-80z" />
    <glyph glyph-name="ecircumflex" unicode="&#xea;" horiz-adv-x="445" 
d="M420 354q0 -20 -2 -48t-11 -79h-261q-2 -12 -3 -24t-1 -23q0 -44 17 -71.5t53 -27.5q31 0 52 19.5t36 45.5l76 -49q-28 -49 -71 -81.5t-105 -32.5q-78 0 -121 50.5t-43 143.5q0 67 17 129.5t48 111t74.5 78t95.5 29.5q40 0 68.5 -12.5t46.5 -35.5t26 -54.5t8 -68.5z
M322 354q0 38 -13.5 60t-43.5 22q-22 0 -39.5 -13t-31 -33t-22 -43t-11.5 -42h156q3 14 4 26t1 23zM311 672l-84 -94h-90l134 144h94l82 -144h-83z" />
    <glyph glyph-name="edieresis" unicode="&#xeb;" horiz-adv-x="445" 
d="M420 354q0 -20 -2 -48t-11 -79h-261q-2 -12 -3 -24t-1 -23q0 -44 17 -71.5t53 -27.5q31 0 52 19.5t36 45.5l76 -49q-28 -49 -71 -81.5t-105 -32.5q-78 0 -121 50.5t-43 143.5q0 67 17 129.5t48 111t74.5 78t95.5 29.5q40 0 68.5 -12.5t46.5 -35.5t26 -54.5t8 -68.5z
M322 354q0 38 -13.5 60t-43.5 22q-22 0 -39.5 -13t-31 -33t-22 -43t-11.5 -42h156q3 14 4 26t1 23zM272 664q0 -28 -17.5 -47.5t-43.5 -19.5q-25 0 -38 16.5t-13 36.5q0 25 17.5 45.5t43.5 20.5q24 0 37.5 -14.5t13.5 -37.5zM438 664q0 -28 -17.5 -47.5t-43.5 -19.5
q-24 0 -37.5 16.5t-13.5 36.5q0 25 17.5 45.5t43.5 20.5q24 0 37.5 -14.5t13.5 -37.5z" />
    <glyph glyph-name="igrave" unicode="&#xec;" horiz-adv-x="242" 
d="M135 0h-108l89 508h108zM24 722h101l103 -144h-81z" />
    <glyph glyph-name="iacute" unicode="&#xed;" horiz-adv-x="242" 
d="M135 0h-108l89 508h108zM122 578l114 144h101l-135 -144h-80z" />
    <glyph glyph-name="icircumflex" unicode="&#xee;" horiz-adv-x="242" 
d="M135 0h-108l89 508h108zM192 672l-84 -94h-90l134 144h94l82 -144h-83z" />
    <glyph glyph-name="idieresis" unicode="&#xef;" horiz-adv-x="242" 
d="M135 0h-108l89 508h108zM164 664q0 -28 -17.5 -47.5t-43.5 -19.5q-25 0 -38 16.5t-13 36.5q0 25 17.5 45.5t43.5 20.5q24 0 37.5 -14.5t13.5 -37.5zM330 664q0 -28 -17.5 -47.5t-43.5 -19.5q-24 0 -37.5 16.5t-13.5 36.5q0 25 17.5 45.5t43.5 20.5q24 0 37.5 -14.5
t13.5 -37.5z" />
    <glyph glyph-name="eth" unicode="&#xf0;" horiz-adv-x="462" 
d="M358 661q16 -24 30.5 -59t25.5 -76.5t17.5 -88t6.5 -93.5q0 -66 -15.5 -130.5t-46 -116t-75.5 -83.5t-103 -32q-39 0 -69.5 14t-51.5 39.5t-31.5 61.5t-10.5 79q0 64 16 124.5t46 107.5t72.5 75.5t95.5 28.5q38 0 59 -21l2 2q-9 34 -24.5 70.5t-32.5 60.5l-111 -52
l-34 44l113 53q-15 20 -33.5 38.5t-37.5 32.5l97 43q19 -18 36.5 -36.5t30.5 -38.5l100 49l39 -44zM330 327q0 47 -15 76t-49 29q-29 0 -52 -25.5t-38.5 -63.5t-24 -82t-8.5 -81q0 -45 15 -73.5t48 -28.5q30 0 53 25t38.5 62t24 80.5t8.5 81.5z" />
    <glyph glyph-name="ntilde" unicode="&#xf1;" horiz-adv-x="497" 
d="M455 402q0 -17 -3 -38.5t-7 -43.5l-55 -320h-109l56 319q2 13 3.5 25t1.5 24q0 25 -10.5 43t-39.5 18q-38 0 -67 -38t-40 -97l-51 -294h-108l67 381q1 10 4 28.5t6 38t5.5 36t3.5 24.5h103q-2 -14 -5 -38t-6 -44h2q20 42 55.5 70.5t82.5 28.5q30 0 51 -10.5t34.5 -28
t19.5 -39.5t6 -45zM467 703q-11 -53 -38.5 -84t-63.5 -31q-17 0 -32.5 5t-32.5 19q-20 14 -29.5 18t-22.5 4q-28 0 -41 -44h-52q11 51 38 82.5t64 31.5q19 0 33.5 -5.5t31.5 -18.5q20 -14 30 -18t23 -4q16 0 25 10.5t15 34.5h52z" />
    <glyph glyph-name="ograve" unicode="&#xf2;" horiz-adv-x="465" 
d="M437 333q0 -65 -16.5 -128t-47.5 -112.5t-75.5 -79.5t-99.5 -30q-77 0 -119.5 53t-42.5 140q0 66 16.5 129t48 112t75.5 78.5t100 29.5q77 0 119 -52t42 -140zM330 327q0 47 -15 76t-49 29q-29 0 -52 -25.5t-38.5 -63.5t-24 -82t-8.5 -81q0 -45 15 -73.5t48 -28.5
q30 0 53 25t38.5 62t24 80.5t8.5 81.5zM137 722h101l103 -144h-81z" />
    <glyph glyph-name="oacute" unicode="&#xf3;" horiz-adv-x="465" 
d="M437 333q0 -65 -16.5 -128t-47.5 -112.5t-75.5 -79.5t-99.5 -30q-77 0 -119.5 53t-42.5 140q0 66 16.5 129t48 112t75.5 78.5t100 29.5q77 0 119 -52t42 -140zM330 327q0 47 -15 76t-49 29q-29 0 -52 -25.5t-38.5 -63.5t-24 -82t-8.5 -81q0 -45 15 -73.5t48 -28.5
q30 0 53 25t38.5 62t24 80.5t8.5 81.5zM252 578l114 144h101l-135 -144h-80z" />
    <glyph glyph-name="ocircumflex" unicode="&#xf4;" horiz-adv-x="465" 
d="M437 333q0 -65 -16.5 -128t-47.5 -112.5t-75.5 -79.5t-99.5 -30q-77 0 -119.5 53t-42.5 140q0 66 16.5 129t48 112t75.5 78.5t100 29.5q77 0 119 -52t42 -140zM330 327q0 47 -15 76t-49 29q-29 0 -52 -25.5t-38.5 -63.5t-24 -82t-8.5 -81q0 -45 15 -73.5t48 -28.5
q30 0 53 25t38.5 62t24 80.5t8.5 81.5zM314 672l-84 -94h-90l134 144h94l82 -144h-83z" />
    <glyph glyph-name="otilde" unicode="&#xf5;" horiz-adv-x="465" 
d="M437 333q0 -65 -16.5 -128t-47.5 -112.5t-75.5 -79.5t-99.5 -30q-77 0 -119.5 53t-42.5 140q0 66 16.5 129t48 112t75.5 78.5t100 29.5q77 0 119 -52t42 -140zM330 327q0 47 -15 76t-49 29q-29 0 -52 -25.5t-38.5 -63.5t-24 -82t-8.5 -81q0 -45 15 -73.5t48 -28.5
q30 0 53 25t38.5 62t24 80.5t8.5 81.5zM460 703q-11 -53 -38.5 -84t-63.5 -31q-17 0 -32.5 5t-32.5 19q-20 14 -29.5 18t-22.5 4q-28 0 -41 -44h-52q11 51 38 82.5t64 31.5q19 0 33.5 -5.5t31.5 -18.5q20 -14 30 -18t23 -4q16 0 25 10.5t15 34.5h52z" />
    <glyph glyph-name="odieresis" unicode="&#xf6;" horiz-adv-x="465" 
d="M437 333q0 -65 -16.5 -128t-47.5 -112.5t-75.5 -79.5t-99.5 -30q-77 0 -119.5 53t-42.5 140q0 66 16.5 129t48 112t75.5 78.5t100 29.5q77 0 119 -52t42 -140zM330 327q0 47 -15 76t-49 29q-29 0 -52 -25.5t-38.5 -63.5t-24 -82t-8.5 -81q0 -45 15 -73.5t48 -28.5
q30 0 53 25t38.5 62t24 80.5t8.5 81.5zM277 664q0 -28 -17.5 -47.5t-43.5 -19.5q-25 0 -38 16.5t-13 36.5q0 25 17.5 45.5t43.5 20.5q24 0 37.5 -14.5t13.5 -37.5zM443 664q0 -28 -17.5 -47.5t-43.5 -19.5q-24 0 -37.5 16.5t-13.5 36.5q0 25 17.5 45.5t43.5 20.5
q24 0 37.5 -14.5t13.5 -37.5z" />
    <glyph glyph-name="divide" unicode="&#xf7;" horiz-adv-x="666" 
d="M258 483q0 31 22 53t53 22t53 -22t22 -53t-22 -53t-53 -22t-53 22t-22 53zM258 123q0 31 22 53t53 22t53 -22t22 -53t-22 -53t-53 -22t-53 22t-22 53zM80 250v107h506v-107h-506z" />
    <glyph glyph-name="oslash" unicode="&#xf8;" horiz-adv-x="465" 
d="M437 333q0 -65 -16.5 -128t-47.5 -112.5t-75.5 -79.5t-99.5 -30q-77 0 -119.5 53t-42.5 140q0 66 16.5 129t48 112t75.5 78.5t100 29.5q77 0 119 -52t42 -140zM395 432l-20 -21l-229 -332l-17 -18l-71 -107l-46 24l80 115l18 17l233 340l18 15l57 88l47 -23zM333 328
q0 49 -16 78.5t-50 29.5q-30 0 -53.5 -26t-39.5 -65t-24.5 -84t-8.5 -82q0 -48 15 -76.5t50 -28.5q31 0 54.5 25.5t39.5 63.5t24.5 82.5t8.5 82.5z" />
    <glyph glyph-name="ugrave" unicode="&#xf9;" horiz-adv-x="497" 
d="M407 127q-2 -10 -4.5 -27.5t-5.5 -36.5t-5.5 -36.5t-3.5 -26.5h-103q2 15 4.5 38.5t6.5 45.5h-2q-20 -42 -55 -71.5t-83 -29.5q-30 0 -51 10.5t-33.5 28t-18.5 40t-6 45.5q0 16 2 38t6 43l56 320h108l-56 -319q-5 -25 -5 -48q0 -26 10.5 -44t39.5 -18q19 0 36.5 10.5
t31.5 28.5t24 42.5t15 53.5l51 294h109zM138 722h101l103 -144h-81z" />
    <glyph glyph-name="uacute" unicode="&#xfa;" horiz-adv-x="497" 
d="M407 127q-2 -10 -4.5 -27.5t-5.5 -36.5t-5.5 -36.5t-3.5 -26.5h-103q2 15 4.5 38.5t6.5 45.5h-2q-20 -42 -55 -71.5t-83 -29.5q-30 0 -51 10.5t-33.5 28t-18.5 40t-6 45.5q0 16 2 38t6 43l56 320h108l-56 -319q-5 -25 -5 -48q0 -26 10.5 -44t39.5 -18q19 0 36.5 10.5
t31.5 28.5t24 42.5t15 53.5l51 294h109zM241 578l114 144h101l-135 -144h-80z" />
    <glyph glyph-name="ucircumflex" unicode="&#xfb;" horiz-adv-x="497" 
d="M407 127q-2 -10 -4.5 -27.5t-5.5 -36.5t-5.5 -36.5t-3.5 -26.5h-103q2 15 4.5 38.5t6.5 45.5h-2q-20 -42 -55 -71.5t-83 -29.5q-30 0 -51 10.5t-33.5 28t-18.5 40t-6 45.5q0 16 2 38t6 43l56 320h108l-56 -319q-5 -25 -5 -48q0 -26 10.5 -44t39.5 -18q19 0 36.5 10.5
t31.5 28.5t24 42.5t15 53.5l51 294h109zM321 672l-84 -94h-90l134 144h94l82 -144h-83z" />
    <glyph glyph-name="udieresis" unicode="&#xfc;" horiz-adv-x="497" 
d="M407 127q-2 -10 -4.5 -27.5t-5.5 -36.5t-5.5 -36.5t-3.5 -26.5h-103q2 15 4.5 38.5t6.5 45.5h-2q-20 -42 -55 -71.5t-83 -29.5q-30 0 -51 10.5t-33.5 28t-18.5 40t-6 45.5q0 16 2 38t6 43l56 320h108l-56 -319q-5 -25 -5 -48q0 -26 10.5 -44t39.5 -18q19 0 36.5 10.5
t31.5 28.5t24 42.5t15 53.5l51 294h109zM289 664q0 -28 -17.5 -47.5t-43.5 -19.5q-25 0 -38 16.5t-13 36.5q0 25 17.5 45.5t43.5 20.5q24 0 37.5 -14.5t13.5 -37.5zM455 664q0 -28 -17.5 -47.5t-43.5 -19.5q-24 0 -37.5 16.5t-13.5 36.5q0 25 17.5 45.5t43.5 20.5
q24 0 37.5 -14.5t13.5 -37.5z" />
    <glyph glyph-name="yacute" unicode="&#xfd;" horiz-adv-x="417" 
d="M202 -73q-17 -38 -34 -68.5t-39 -52.5t-49 -34t-63 -12q-18 0 -32 2.5t-25 6.5l20 96q10 -6 33 -6q28 0 44 16.5t29 46.5l28 65l-58 521h112l24 -387h2l152 387h111zM216 578l114 144h101l-135 -144h-80z" />
    <glyph glyph-name="thorn" unicode="&#xfe;" 
d="M466 346q0 -61 -15 -125.5t-42.5 -117t-67.5 -86.5t-90 -34t-74 26t-28 61h-2l-53 -310h-103l169 996h105l-54 -316h2q17 37 48 61t74 24q65 0 98 -49t33 -130zM357 331q0 45 -15 73.5t-49 28.5q-29 0 -52.5 -25t-39.5 -62.5t-24.5 -81.5t-8.5 -81q0 -48 15 -77t49 -29
q30 0 53.5 26t39.5 64t24 82.5t8 81.5z" />
    <glyph glyph-name="ydieresis" unicode="&#xff;" horiz-adv-x="417" 
d="M202 -73q-17 -38 -34 -68.5t-39 -52.5t-49 -34t-63 -12q-18 0 -32 2.5t-25 6.5l20 96q10 -6 33 -6q28 0 44 16.5t29 46.5l28 65l-58 521h112l24 -387h2l152 387h111zM253 664q0 -28 -17.5 -47.5t-43.5 -19.5q-25 0 -38 16.5t-13 36.5q0 25 17.5 45.5t43.5 20.5
q24 0 37.5 -14.5t13.5 -37.5zM419 664q0 -28 -17.5 -47.5t-43.5 -19.5q-24 0 -37.5 16.5t-13.5 36.5q0 25 17.5 45.5t43.5 20.5q24 0 37.5 -14.5t13.5 -37.5z" />
    <glyph glyph-name="Amacron" unicode="&#x100;" horiz-adv-x="505" 
d="M343 0l-5 153h-192l-65 -153h-118l314 708h147l35 -708h-116zM330 597h-4l-148 -355h161zM233 869h273l-12 -65h-272z" />
    <glyph glyph-name="amacron" unicode="&#x101;" horiz-adv-x="425" 
d="M390 383q0 -19 -2.5 -38t-6.5 -42l-34 -200q-5 -28 -9 -58.5t-4 -44.5h-91q0 6 1 16t2.5 21t3 21.5t3.5 18.5h-2q-18 -42 -49 -65t-78 -23q-21 0 -40.5 7t-34.5 21.5t-24 37t-9 54.5q0 59 21 98.5t55 63.5t76.5 34.5t86.5 10.5h30q4 22 5 32.5t1 17.5q0 68 -61 68
q-28 0 -54 -14t-46 -34l-44 68q31 32 75 51.5t86 19.5q75 0 109 -37.5t34 -104.5zM242 241q-24 0 -47 -6t-41 -19t-29 -34.5t-11 -52.5q0 -30 14 -43.5t34 -13.5q23 0 41 13t31.5 33.5t22.5 45t13 48.5l5 29h-33zM136 683h273l-12 -65h-272z" />
    <glyph glyph-name="Abreve" unicode="&#x102;" horiz-adv-x="505" 
d="M343 0l-5 153h-192l-65 -153h-118l314 708h147l35 -708h-116zM330 597h-4l-148 -355h161zM349 767q-26 0 -48 7.5t-39 23.5t-26.5 42t-9.5 63h66q0 -36 18.5 -51.5t43.5 -15.5q30 0 53.5 14.5t34.5 52.5h65q-20 -74 -62.5 -105t-95.5 -31z" />
    <glyph glyph-name="abreve" unicode="&#x103;" horiz-adv-x="425" 
d="M390 383q0 -19 -2.5 -38t-6.5 -42l-34 -200q-5 -28 -9 -58.5t-4 -44.5h-91q0 6 1 16t2.5 21t3 21.5t3.5 18.5h-2q-18 -42 -49 -65t-78 -23q-21 0 -40.5 7t-34.5 21.5t-24 37t-9 54.5q0 59 21 98.5t55 63.5t76.5 34.5t86.5 10.5h30q4 22 5 32.5t1 17.5q0 68 -61 68
q-28 0 -54 -14t-46 -34l-44 68q31 32 75 51.5t86 19.5q75 0 109 -37.5t34 -104.5zM242 241q-24 0 -47 -6t-41 -19t-29 -34.5t-11 -52.5q0 -30 14 -43.5t34 -13.5q23 0 41 13t31.5 33.5t22.5 45t13 48.5l5 29h-33zM255 581q-26 0 -48 7.5t-39 23.5t-26.5 42t-9.5 63h66
q0 -35 19 -51q8 -8 19.5 -12t23.5 -4q30 0 53.5 14.5t34.5 52.5h65q-20 -74 -62.5 -105t-95.5 -31z" />
    <glyph glyph-name="Aogonek" unicode="&#x104;" horiz-adv-x="505" 
d="M352 -226q-35 0 -58 19t-23 61q0 22 11 42.5t27.5 39.5t37 35t39.5 29h-43l-5 153h-192l-65 -153h-118l314 708h147l35 -708h-4q-51 -41 -77 -69t-26 -54q0 -35 32 -35q27 0 52 20l14 -50q-21 -17 -46.5 -27.5t-51.5 -10.5zM330 597h-4l-148 -355h161z" />
    <glyph glyph-name="aogonek" unicode="&#x105;" horiz-adv-x="425" 
d="M219 -226q-35 0 -58 19t-23 61q0 22 11 42.5t27.5 39.5t37 35t39.5 29h-10q0 6 1 16t2.5 21t3 21.5t3.5 18.5h-2q-18 -42 -49 -65t-78 -23q-21 0 -40.5 7t-34.5 21.5t-24 37t-9 54.5q0 59 21 98.5t55 63.5t76.5 34.5t86.5 10.5h30q4 22 5 32.5t1 17.5q0 68 -61 68
q-28 0 -54 -14t-46 -34l-44 68q31 32 75 51.5t86 19.5q75 0 109 -37.5t34 -104.5q0 -19 -2.5 -38t-6.5 -42l-34 -200q-5 -28 -9 -58.5t-4 -44.5h-12q-51 -41 -77 -69t-26 -54q0 -35 32 -35q27 0 52 20l14 -50q-21 -17 -46.5 -27.5t-51.5 -10.5zM242 241q-24 0 -47 -6
t-41 -19t-29 -34.5t-11 -52.5q0 -30 14 -43.5t34 -13.5q23 0 41 13t31.5 33.5t22.5 45t13 48.5l5 29h-33z" />
    <glyph glyph-name="Cacute" unicode="&#x106;" horiz-adv-x="490" 
d="M471 561q-17 26 -40 41t-58 15q-47 0 -84 -34t-63 -86.5t-40 -115t-14 -119.5q0 -76 27.5 -123.5t86.5 -47.5q39 0 67 19.5t46 39.5l55 -79q-35 -40 -80.5 -64t-108.5 -24q-51 0 -90.5 20t-66.5 55.5t-41 84.5t-14 108q0 89 24 174t67.5 152t104.5 107.5t134 40.5
q61 0 103 -22t66 -61zM319 764l114 144h101l-135 -144h-80z" />
    <glyph glyph-name="cacute" unicode="&#x107;" horiz-adv-x="344" 
d="M326 403q-9 11 -22.5 17.5t-35.5 6.5q-29 0 -52 -23.5t-39.5 -59.5t-25 -78.5t-8.5 -79.5q0 -48 16 -75.5t58 -27.5q19 0 33 6.5t30 18.5l33 -86q-22 -18 -52 -28.5t-62 -10.5q-43 0 -73.5 15t-50.5 41t-29.5 61.5t-9.5 76.5q0 62 16 124.5t46 112t74 80.5t100 31
q45 0 71.5 -12.5t40.5 -27.5zM214 578l114 144h101l-135 -144h-80z" />
    <glyph glyph-name="Ccircumflex" unicode="&#x108;" horiz-adv-x="490" 
d="M471 561q-17 26 -40 41t-58 15q-47 0 -84 -34t-63 -86.5t-40 -115t-14 -119.5q0 -76 27.5 -123.5t86.5 -47.5q39 0 67 19.5t46 39.5l55 -79q-35 -40 -80.5 -64t-108.5 -24q-51 0 -90.5 20t-66.5 55.5t-41 84.5t-14 108q0 89 24 174t67.5 152t104.5 107.5t134 40.5
q61 0 103 -22t66 -61zM415 858l-84 -94h-90l134 144h94l82 -144h-83z" />
    <glyph glyph-name="ccircumflex" unicode="&#x109;" horiz-adv-x="344" 
d="M326 403q-9 11 -22.5 17.5t-35.5 6.5q-29 0 -52 -23.5t-39.5 -59.5t-25 -78.5t-8.5 -79.5q0 -48 16 -75.5t58 -27.5q19 0 33 6.5t30 18.5l33 -86q-22 -18 -52 -28.5t-62 -10.5q-43 0 -73.5 15t-50.5 41t-29.5 61.5t-9.5 76.5q0 62 16 124.5t46 112t74 80.5t100 31
q45 0 71.5 -12.5t40.5 -27.5zM302 672l-84 -94h-90l134 144h94l82 -144h-83z" />
    <glyph glyph-name="Cdotaccent" unicode="&#x10a;" horiz-adv-x="490" 
d="M471 561q-17 26 -40 41t-58 15q-47 0 -84 -34t-63 -86.5t-40 -115t-14 -119.5q0 -76 27.5 -123.5t86.5 -47.5q39 0 67 19.5t46 39.5l55 -79q-35 -40 -80.5 -64t-108.5 -24q-51 0 -90.5 20t-66.5 55.5t-41 84.5t-14 108q0 89 24 174t67.5 152t104.5 107.5t134 40.5
q61 0 103 -22t66 -61zM472 852q0 -32 -20 -54t-50 -22q-28 0 -42.5 17.5t-14.5 40.5q0 15 5.5 28.5t14.5 24t22 17t28 6.5q27 0 42 -16.5t15 -41.5z" />
    <glyph glyph-name="cdotaccent" unicode="&#x10b;" horiz-adv-x="344" 
d="M326 403q-9 11 -22.5 17.5t-35.5 6.5q-29 0 -52 -23.5t-39.5 -59.5t-25 -78.5t-8.5 -79.5q0 -48 16 -75.5t58 -27.5q19 0 33 6.5t30 18.5l33 -86q-22 -18 -52 -28.5t-62 -10.5q-43 0 -73.5 15t-50.5 41t-29.5 61.5t-9.5 76.5q0 62 16 124.5t46 112t74 80.5t100 31
q45 0 71.5 -12.5t40.5 -27.5zM361 666q0 -32 -20 -54t-50 -22q-28 0 -42.5 17.5t-14.5 40.5q0 15 5.5 28.5t14.5 24t22 17t28 6.5q27 0 42 -16t15 -42z" />
    <glyph glyph-name="Ccaron" unicode="&#x10c;" horiz-adv-x="490" 
d="M471 561q-17 26 -40 41t-58 15q-47 0 -84 -34t-63 -86.5t-40 -115t-14 -119.5q0 -76 27.5 -123.5t86.5 -47.5q39 0 67 19.5t46 39.5l55 -79q-35 -40 -80.5 -64t-108.5 -24q-51 0 -90.5 20t-66.5 55.5t-41 84.5t-14 108q0 89 24 174t67.5 152t104.5 107.5t134 40.5
q61 0 103 -22t66 -61zM402 813l85 94h91l-133 -144h-94l-84 144h83z" />
    <glyph glyph-name="ccaron" unicode="&#x10d;" horiz-adv-x="344" 
d="M326 403q-9 11 -22.5 17.5t-35.5 6.5q-29 0 -52 -23.5t-39.5 -59.5t-25 -78.5t-8.5 -79.5q0 -48 16 -75.5t58 -27.5q19 0 33 6.5t30 18.5l33 -86q-22 -18 -52 -28.5t-62 -10.5q-43 0 -73.5 15t-50.5 41t-29.5 61.5t-9.5 76.5q0 62 16 124.5t46 112t74 80.5t100 31
q45 0 71.5 -12.5t40.5 -27.5zM291 627l85 94h91l-133 -144h-94l-84 144h83z" />
    <glyph glyph-name="Dcaron" unicode="&#x10e;" horiz-adv-x="560" 
d="M552 436q0 -84 -20 -162.5t-62 -139.5t-106.5 -97.5t-152.5 -36.5h-179l123 708h171q60 0 103 -20t70 -56t40 -86t13 -110zM436 427q0 83 -30.5 132.5t-93.5 49.5h-61l-87 -510h62q48 0 87 27.5t66.5 73t42 105t14.5 122.5zM345 813l85 94h91l-133 -144h-94l-84 144h83z
" />
    <glyph glyph-name="dcaron" unicode="&#x10f;" horiz-adv-x="491" 
d="M384 0h-104l13 75h-2q-18 -38 -48.5 -65t-80.5 -27q-64 0 -95 50.5t-31 131.5q0 61 14.5 125t42.5 116t68.5 85.5t91.5 33.5q45 0 69 -23t29 -61h3l55 315h107zM332 325q0 47 -15 77t-49 30q-30 0 -53 -25.5t-38.5 -64t-23.5 -82.5t-8 -81q0 -45 14.5 -73t48.5 -28
q29 0 52 25t39 62t24.5 80.5t8.5 79.5zM585 521h-77l89 187h89z" />
    <glyph glyph-name="Dcroat" unicode="&#x110;" horiz-adv-x="560" 
d="M552 436q0 -84 -20 -162.5t-62 -139.5t-106.5 -97.5t-152.5 -36.5h-179l57 324h-55l13 77h55l53 307h171q60 0 103 -20t70 -56t40 -86t13 -110zM436 427q0 83 -30.5 132.5t-93.5 49.5h-61l-37 -208h115l-13 -77h-114l-38 -225h62q48 0 87 27.5t66.5 73t42 105t14.5 122.5
z" />
    <glyph glyph-name="dcroat" unicode="&#x111;" horiz-adv-x="491" 
d="M287 649h103l19 107h106l-19 -107h48l-12 -62h-46l-102 -587h-104l13 75h-2q-18 -38 -48.5 -65t-80.5 -27q-64 0 -95 50.5t-31 131.5q0 61 14.5 125t42.5 116t68.5 85.5t91.5 33.5q45 0 69 -23.5t29 -61.5h3l25 147h-103zM145 179q0 -45 14.5 -73t48.5 -28q30 0 53 25
t38.5 62t24 80t8.5 80q0 48 -15 77.5t-49 29.5q-30 0 -53 -25.5t-38.5 -63.5t-23.5 -82.5t-8 -81.5z" />
    <glyph glyph-name="Emacron" unicode="&#x112;" horiz-adv-x="431" 
d="M443 608h-196l-35 -195h187l-16 -95h-186l-38 -216h214l-17 -102h-324l123 708h306zM193 869h273l-12 -65h-272z" />
    <glyph glyph-name="emacron" unicode="&#x113;" horiz-adv-x="445" 
d="M420 354q0 -20 -2 -48t-11 -79h-261q-2 -12 -3 -24t-1 -23q0 -44 17 -71.5t53 -27.5q31 0 52 19.5t36 45.5l76 -49q-28 -49 -71 -81.5t-105 -32.5q-78 0 -121 50.5t-43 143.5q0 67 17 129.5t48 111t74.5 78t95.5 29.5q40 0 68.5 -12.5t46.5 -35.5t26 -54.5t8 -68.5z
M322 354q0 38 -13.5 60t-43.5 22q-22 0 -39.5 -13t-31 -33t-22 -43t-11.5 -42h156q3 14 4 26t1 23zM170 683h273l-12 -65h-272z" />
    <glyph glyph-name="Ebreve" unicode="&#x114;" horiz-adv-x="431" 
d="M443 608h-196l-35 -195h187l-16 -95h-186l-38 -216h214l-17 -102h-324l123 708h306zM314 767q-26 0 -48 7.5t-39 23.5t-26.5 42t-9.5 63h66q0 -36 18.5 -51.5t43.5 -15.5q30 0 53.5 14.5t34.5 52.5h65q-20 -74 -62.5 -105t-95.5 -31z" />
    <glyph glyph-name="ebreve" unicode="&#x115;" horiz-adv-x="445" 
d="M420 354q0 -20 -2 -48t-11 -79h-261q-2 -12 -3 -24t-1 -23q0 -44 17 -71.5t53 -27.5q31 0 52 19.5t36 45.5l76 -49q-28 -49 -71 -81.5t-105 -32.5q-78 0 -121 50.5t-43 143.5q0 67 17 129.5t48 111t74.5 78t95.5 29.5q40 0 68.5 -12.5t46.5 -35.5t26 -54.5t8 -68.5z
M322 354q0 38 -13.5 60t-43.5 22q-22 0 -39.5 -13t-31 -33t-22 -43t-11.5 -42h156q3 14 4 26t1 23zM293 581q-26 0 -48 7.5t-39 23.5t-26.5 42t-9.5 63h66q0 -35 19 -51q8 -8 19.5 -12t23.5 -4q30 0 53.5 14.5t34.5 52.5h65q-20 -74 -62.5 -105t-95.5 -31z" />
    <glyph glyph-name="Edotaccent" unicode="&#x116;" horiz-adv-x="431" 
d="M443 608h-196l-35 -195h187l-16 -95h-186l-38 -216h214l-17 -102h-324l123 708h306zM392 852q0 -32 -20 -54t-50 -22q-28 0 -42.5 17.5t-14.5 40.5q0 15 5.5 28.5t14.5 24t22 17t28 6.5q27 0 42 -16.5t15 -41.5z" />
    <glyph glyph-name="edotaccent" unicode="&#x117;" horiz-adv-x="445" 
d="M420 354q0 -20 -2 -48t-11 -79h-261q-2 -12 -3 -24t-1 -23q0 -44 17 -71.5t53 -27.5q31 0 52 19.5t36 45.5l76 -49q-28 -49 -71 -81.5t-105 -32.5q-78 0 -121 50.5t-43 143.5q0 67 17 129.5t48 111t74.5 78t95.5 29.5q40 0 68.5 -12.5t46.5 -35.5t26 -54.5t8 -68.5z
M322 354q0 38 -13.5 60t-43.5 22q-22 0 -39.5 -13t-31 -33t-22 -43t-11.5 -42h156q3 14 4 26t1 23zM368 666q0 -32 -20 -54t-50 -22q-28 0 -42.5 17.5t-14.5 40.5q0 15 5.5 28.5t14.5 24t22 17t28 6.5q27 0 42 -16t15 -42z" />
    <glyph glyph-name="Eogonek" unicode="&#x118;" horiz-adv-x="431" 
d="M157 -226q-35 0 -58 19t-23 61q0 22 11 42.5t27.5 39.5t37 35t39.5 29h-159l123 708h306l-18 -100h-196l-35 -195h187l-16 -95h-186l-38 -216h214l-17 -102h-96q-51 -41 -77 -69t-26 -54q0 -35 32 -35q27 0 52 20l14 -50q-21 -17 -46.5 -27.5t-51.5 -10.5z" />
    <glyph glyph-name="eogonek" unicode="&#x119;" horiz-adv-x="445" 
d="M157 -226q-35 0 -58 19t-23 61q0 19 8 37t21 34.5t30 31.5t34 28q-63 10 -98 59t-35 133q0 67 17 129.5t48 111t74.5 78t95.5 29.5q40 0 68.5 -12.5t46.5 -35.5t26 -54.5t8 -68.5q0 -20 -2 -48t-11 -79h-261q-2 -12 -3 -24t-1 -23q0 -44 17 -71.5t53 -27.5q31 0 52 19.5
t36 45.5l76 -49q-23 -39 -55 -68t-76 -40q-43 -36 -65.5 -62t-22.5 -50q0 -35 32 -35q27 0 52 20l14 -50q-21 -17 -46.5 -27.5t-51.5 -10.5zM322 354q0 38 -13.5 60t-43.5 22q-22 0 -39.5 -13t-31 -33t-22 -43t-11.5 -42h156q3 14 4 26t1 23z" />
    <glyph glyph-name="Ecaron" unicode="&#x11a;" horiz-adv-x="431" 
d="M443 608h-196l-35 -195h187l-16 -95h-186l-38 -216h214l-17 -102h-324l123 708h306zM320 813l85 94h91l-133 -144h-94l-84 144h83z" />
    <glyph glyph-name="ecaron" unicode="&#x11b;" horiz-adv-x="445" 
d="M420 354q0 -20 -2 -48t-11 -79h-261q-2 -12 -3 -24t-1 -23q0 -44 17 -71.5t53 -27.5q31 0 52 19.5t36 45.5l76 -49q-28 -49 -71 -81.5t-105 -32.5q-78 0 -121 50.5t-43 143.5q0 67 17 129.5t48 111t74.5 78t95.5 29.5q40 0 68.5 -12.5t46.5 -35.5t26 -54.5t8 -68.5z
M322 354q0 38 -13.5 60t-43.5 22q-22 0 -39.5 -13t-31 -33t-22 -43t-11.5 -42h156q3 14 4 26t1 23zM295 627l85 94h91l-133 -144h-94l-84 144h83z" />
    <glyph glyph-name="Gcircumflex" unicode="&#x11c;" horiz-adv-x="541" 
d="M471 560q-31 58 -98 58q-49 0 -87 -35t-64 -88.5t-39.5 -116.5t-13.5 -119q0 -75 29 -121.5t94 -46.5q26 0 46 5.5t36 16.5l32 187h-97l18 100h203l-62 -357q-37 -28 -84 -44t-109 -16q-55 0 -96.5 19.5t-69.5 55t-42 84.5t-14 109q0 87 24 171.5t67.5 152t104 109
t134.5 41.5q63 0 105 -22t64 -62zM406 858l-84 -94h-90l134 144h94l82 -144h-83z" />
    <glyph glyph-name="gcircumflex" unicode="&#x11d;" horiz-adv-x="489" 
d="M382 14q-9 -56 -26.5 -102.5t-46 -80t-69 -52.5t-97.5 -19q-51 0 -95.5 20t-70.5 52l64 79q20 -23 46.5 -38.5t61.5 -15.5q29 0 50.5 11.5t36.5 31.5t24.5 47.5t15.5 59.5l13 68h-2q-19 -36 -47 -61t-78 -25q-63 0 -97 49t-34 130q0 61 14.5 124t42 115t67.5 85t91 33
q44 0 71 -24t33 -62h3l12 69h103zM328 325q0 47 -15.5 77t-49.5 30q-30 0 -52.5 -25.5t-38.5 -64t-24 -82.5t-8 -81q0 -45 15 -73t48 -28q29 0 52.5 25t39.5 62t24.5 80t8.5 80zM317 672l-84 -94h-90l134 144h94l82 -144h-83z" />
    <glyph glyph-name="Gbreve" unicode="&#x11e;" horiz-adv-x="541" 
d="M471 560q-31 58 -98 58q-49 0 -87 -35t-64 -88.5t-39.5 -116.5t-13.5 -119q0 -75 29 -121.5t94 -46.5q26 0 46 5.5t36 16.5l32 187h-97l18 100h203l-62 -357q-37 -28 -84 -44t-109 -16q-55 0 -96.5 19.5t-69.5 55t-42 84.5t-14 109q0 87 24 171.5t67.5 152t104 109
t134.5 41.5q63 0 105 -22t64 -62zM396 767q-26 0 -48 7.5t-39 23.5t-26.5 42t-9.5 63h66q0 -36 18.5 -51.5t43.5 -15.5q30 0 53.5 14.5t34.5 52.5h65q-20 -74 -62.5 -105t-95.5 -31z" />
    <glyph glyph-name="gbreve" unicode="&#x11f;" horiz-adv-x="489" 
d="M382 14q-9 -56 -26.5 -102.5t-46 -80t-69 -52.5t-97.5 -19q-51 0 -95.5 20t-70.5 52l64 79q20 -23 46.5 -38.5t61.5 -15.5q29 0 50.5 11.5t36.5 31.5t24.5 47.5t15.5 59.5l13 68h-2q-19 -36 -47 -61t-78 -25q-63 0 -97 49t-34 130q0 61 14.5 124t42 115t67.5 85t91 33
q44 0 71 -24t33 -62h3l12 69h103zM328 325q0 47 -15.5 77t-49.5 30q-30 0 -52.5 -25.5t-38.5 -64t-24 -82.5t-8 -81q0 -45 15 -73t48 -28q29 0 52.5 25t39.5 62t24.5 80t8.5 80zM304 581q-26 0 -48 7.5t-39 23.5t-26.5 42t-9.5 63h66q0 -35 19 -51q8 -8 19.5 -12t23.5 -4
q30 0 53.5 14.5t34.5 52.5h65q-20 -74 -62.5 -105t-95.5 -31z" />
    <glyph glyph-name="Gdotaccent" unicode="&#x120;" horiz-adv-x="541" 
d="M471 560q-31 58 -98 58q-49 0 -87 -35t-64 -88.5t-39.5 -116.5t-13.5 -119q0 -75 29 -121.5t94 -46.5q26 0 46 5.5t36 16.5l32 187h-97l18 100h203l-62 -357q-37 -28 -84 -44t-109 -16q-55 0 -96.5 19.5t-69.5 55t-42 84.5t-14 109q0 87 24 171.5t67.5 152t104 109
t134.5 41.5q63 0 105 -22t64 -62zM472 852q0 -32 -20 -54t-50 -22q-28 0 -42.5 17.5t-14.5 40.5q0 15 5.5 28.5t14.5 24t22 17t28 6.5q27 0 42 -16.5t15 -41.5z" />
    <glyph glyph-name="gdotaccent" unicode="&#x121;" horiz-adv-x="489" 
d="M382 14q-9 -56 -26.5 -102.5t-46 -80t-69 -52.5t-97.5 -19q-51 0 -95.5 20t-70.5 52l64 79q20 -23 46.5 -38.5t61.5 -15.5q29 0 50.5 11.5t36.5 31.5t24.5 47.5t15.5 59.5l13 68h-2q-19 -36 -47 -61t-78 -25q-63 0 -97 49t-34 130q0 61 14.5 124t42 115t67.5 85t91 33
q44 0 71 -24t33 -62h3l12 69h103zM328 325q0 47 -15.5 77t-49.5 30q-30 0 -52.5 -25.5t-38.5 -64t-24 -82.5t-8 -81q0 -45 15 -73t48 -28q29 0 52.5 25t39.5 62t24.5 80t8.5 80zM379 666q0 -32 -20 -54t-50 -22q-28 0 -42.5 17.5t-14.5 40.5q0 15 5.5 28.5t14.5 24t22 17
t28 6.5q27 0 42 -16t15 -42z" />
    <glyph glyph-name="Gcommaaccent" unicode="&#x122;" horiz-adv-x="541" 
d="M471 560q-31 58 -98 58q-49 0 -87 -35t-64 -88.5t-39.5 -116.5t-13.5 -119q0 -75 29 -121.5t94 -46.5q26 0 46 5.5t36 16.5l32 187h-97l18 100h203l-62 -357q-37 -28 -84 -44t-109 -16q-55 0 -96.5 19.5t-69.5 55t-42 84.5t-14 109q0 87 24 171.5t67.5 152t104 109
t134.5 41.5q63 0 105 -22t64 -62zM196 -232h-77l89 187h89z" />
    <glyph glyph-name="gcommaaccent" unicode="&#x123;" horiz-adv-x="489" 
d="M382 14q-9 -56 -26.5 -102.5t-46 -80t-69 -52.5t-97.5 -19q-51 0 -95.5 20t-70.5 52l64 79q20 -23 46.5 -38.5t61.5 -15.5q29 0 50.5 11.5t36.5 31.5t24.5 47.5t15.5 59.5l13 68h-2q-19 -36 -47 -61t-78 -25q-63 0 -97 49t-34 130q0 61 14.5 124t42 115t67.5 85t91 33
q44 0 71 -24t33 -62h3l12 69h103zM328 325q0 47 -15.5 77t-49.5 30q-30 0 -52.5 -25.5t-38.5 -64t-24 -82.5t-8 -81q0 -45 15 -73t48 -28q29 0 52.5 25t39.5 62t24.5 80t8.5 80zM358 765h77l-89 -187h-89z" />
    <glyph glyph-name="Hcircumflex" unicode="&#x124;" horiz-adv-x="589" 
d="M478 0h-114l56 316h-220l-54 -316h-114l123 708h114l-52 -290h219l50 290h115zM410 858l-84 -94h-90l134 144h94l82 -144h-83z" />
    <glyph glyph-name="hcircumflex" unicode="&#x125;" horiz-adv-x="500" 
d="M456 402q0 -17 -2 -38.5t-6 -43.5l-56 -320h-107l55 319q2 13 3.5 25t1.5 24q0 25 -10.5 43t-39.5 18q-19 0 -36 -10t-31 -28t-24.5 -43t-15.5 -54l-51 -294h-109l132 756h107l-57 -327h2q19 40 53.5 68t82.5 28q30 0 50.5 -10.5t33 -28t18.5 -39.5t6 -45zM357 904
l-84 -94h-90l134 144h94l82 -144h-83z" />
    <glyph glyph-name="Hbar" unicode="&#x126;" horiz-adv-x="589" 
d="M478 0h-114l56 316h-220l-54 -316h-114l123 708h113l-25 -136h220l24 136h114zM437 417l16 93h-221l-16 -93h221z" />
    <glyph glyph-name="hbar" unicode="&#x127;" horiz-adv-x="500" 
d="M89 649h52l19 107h106l-19 -107h99l-12 -62h-97l-27 -159h2q19 40 53 68.5t82 28.5q30 0 51 -10.5t33.5 -28t18.5 -39.5t6 -45q0 -17 -2 -38.5t-6 -43.5l-56 -320h-107l55 319q2 13 3.5 25t1.5 24q0 26 -10.5 43.5t-39.5 17.5q-39 0 -68 -38t-39 -97l-51 -294h-109
l102 587h-52z" />
    <glyph glyph-name="Itilde" unicode="&#x128;" horiz-adv-x="258" 
d="M147 0h-115l123 708h115zM384 887q-11 -53 -38.5 -84t-63.5 -31q-17 0 -32.5 5t-32.5 19q-20 14 -29.5 18t-22.5 4q-28 0 -41 -44h-52q11 51 38 82.5t64 31.5q19 0 33.5 -5.5t31.5 -18.5q20 -14 30 -18t23 -4q16 0 25 10.5t15 34.5h52z" />
    <glyph glyph-name="itilde" unicode="&#x129;" horiz-adv-x="242" 
d="M135 0h-108l89 508h108zM341 703q-11 -53 -38.5 -84t-63.5 -31q-17 0 -32.5 5t-32.5 19q-20 14 -29.5 18t-22.5 4q-28 0 -41 -44h-52q11 51 38 82.5t64 31.5q19 0 33.5 -5.5t31.5 -18.5q20 -14 30 -18t23 -4q16 0 25 10.5t15 34.5h52z" />
    <glyph glyph-name="Imacron" unicode="&#x12a;" horiz-adv-x="258" 
d="M147 0h-115l123 708h115zM96 869h273l-12 -65h-272z" />
    <glyph glyph-name="imacron" unicode="&#x12b;" horiz-adv-x="242" 
d="M135 0h-108l89 508h108zM59 683h273l-12 -65h-272z" />
    <glyph glyph-name="Iogonek" unicode="&#x12e;" horiz-adv-x="258" 
d="M43 -226q-35 0 -58 19t-23 61q0 22 11 42.5t27.5 39.5t37 35t39.5 29h-45l123 708h115l-123 -708h-1q-51 -41 -77 -69t-26 -54q0 -35 32 -35q27 0 52 20l14 -50q-21 -17 -46.5 -27.5t-51.5 -10.5z" />
    <glyph glyph-name="iogonek" unicode="&#x12f;" horiz-adv-x="242" 
d="M135 0h-2q-51 -41 -77 -69t-26 -54q0 -35 32 -35q27 0 52 20l14 -50q-21 -17 -46.5 -27.5t-51.5 -10.5q-35 0 -58 19t-23 61q0 22 11 42.5t27.5 39.5t37 35t39.5 29h-37l89 508h108zM256 666q0 -32 -20 -54t-50 -22q-28 0 -43 17.5t-15 40.5q0 30 20 53.5t51 23.5
q27 0 42 -16.5t15 -42.5z" />
    <glyph glyph-name="Idotaccent" unicode="&#x130;" horiz-adv-x="258" 
d="M147 0h-115l123 708h115zM292 852q0 -32 -20 -54t-50 -22q-28 0 -42.5 17.5t-14.5 40.5q0 15 5.5 28.5t14.5 24t22 17t28 6.5q27 0 42 -16.5t15 -41.5z" />
    <glyph glyph-name="dotlessi" unicode="&#x131;" horiz-adv-x="242" 
d="M135 0h-108l89 508h108z" />
    <glyph glyph-name="IJ" unicode="&#x132;" horiz-adv-x="660" 
d="M146 0h-114l123 708h114zM591 205q-9 -51 -23 -92t-37.5 -70t-57.5 -44.5t-82 -15.5q-35 0 -62 10t-47.5 26.5t-33.5 39t-19 47.5l95 42q6 -23 22 -41.5t46 -18.5q22 0 37 9t25 25.5t16 40t11 53.5l86 492h111z" />
    <glyph glyph-name="ij" unicode="&#x133;" horiz-adv-x="488" 
d="M134 0h-107l89 508h107zM255 666q0 -32 -20 -54t-50 -22q-27 0 -42 17.5t-15 40.5q0 15 5.5 28.5t14.5 24t22 17t28 6.5q27 0 42 -16t15 -42zM374 -52q-7 -40 -19.5 -74t-33.5 -59.5t-52 -40t-74 -14.5q-11 0 -23.5 1.5t-23.5 4.5l16 99q7 -2 14 -3t13 -1q37 0 52 27.5
t23 68.5l97 552h110zM503 666q0 -32 -20.5 -54t-49.5 -22q-27 0 -42 17.5t-15 40.5q0 29 19.5 52.5t50.5 23.5q27 0 42 -16t15 -42z" />
    <glyph glyph-name="Jcircumflex" unicode="&#x134;" horiz-adv-x="409" 
d="M341 206q-9 -51 -23.5 -92.5t-37.5 -70.5t-57 -44.5t-83 -15.5q-35 0 -62.5 10t-48 26.5t-33.5 39t-19 48.5l96 42q6 -23 22 -41t46 -18q22 0 36.5 8.5t24 25t16 40t11.5 53.5l86 491h112zM395 858l-84 -94h-90l134 144h94l82 -144h-83z" />
    <glyph glyph-name="jcircumflex" unicode="&#x135;" horiz-adv-x="242" 
d="M128 -51q-7 -40 -19.5 -74.5t-33.5 -60t-52 -40t-75 -14.5q-11 0 -23.5 1.5t-23.5 4.5l16 100q7 -2 14 -3t13 -1q37 0 52 27.5t23 68.5l97 550h111zM194 672l-84 -94h-90l134 144h94l82 -144h-83z" />
    <glyph glyph-name="Kcommaaccent" unicode="&#x136;" horiz-adv-x="521" 
d="M315 371l159 -371h-128l-139 346h-2l-60 -346h-113l123 708h113l-55 -309h3l237 309h132zM178 -232h-77l89 187h89z" />
    <glyph glyph-name="kcommaaccent" unicode="&#x137;" horiz-adv-x="447" 
d="M277 268l124 -268h-117l-107 245h-2l-41 -245h-106l131 756h106l-81 -462h2l170 214h126zM143 -232h-77l89 187h89z" />
    <glyph glyph-name="Lacute" unicode="&#x139;" horiz-adv-x="390" 
d="M343 0h-311l123 708h115l-104 -602h195zM177 764l114 144h101l-135 -144h-80z" />
    <glyph glyph-name="lacute" unicode="&#x13a;" horiz-adv-x="243" 
d="M137 0h-109l132 756h108zM168 806l114 144h101l-135 -144h-80z" />
    <glyph glyph-name="Lcommaaccent" unicode="&#x13b;" horiz-adv-x="390" 
d="M343 0h-311l123 708h115l-104 -602h195zM126 -232h-77l89 187h89z" />
    <glyph glyph-name="lcommaaccent" unicode="&#x13c;" horiz-adv-x="243" 
d="M137 0h-109l132 756h108zM27 -232h-77l89 187h89z" />
    <glyph glyph-name="Lcaron" unicode="&#x13d;" horiz-adv-x="390" 
d="M343 0h-311l123 708h115l-104 -602h195zM369 521h-77l89 187h89z" />
    <glyph glyph-name="lcaron" unicode="&#x13e;" horiz-adv-x="243" 
d="M137 0h-109l132 756h108zM331 521h-77l89 187h89z" />
    <glyph glyph-name="Ldot" unicode="&#x13f;" horiz-adv-x="390" 
d="M343 0h-311l123 708h115l-104 -602h195zM406 366q0 -32 -20 -54t-50 -22q-28 0 -42.5 17.5t-14.5 40.5q0 15 5.5 28.5t14.5 24t22 17t28 6.5q27 0 42 -16t15 -42z" />
    <glyph glyph-name="ldot" unicode="&#x140;" horiz-adv-x="354" 
d="M137 0h-109l132 756h108zM382 366q0 -32 -20 -54t-50 -22q-28 0 -42.5 17.5t-14.5 40.5q0 15 5.5 28.5t14.5 24t22 17t28 6.5q27 0 42 -16t15 -42z" />
    <glyph glyph-name="Lslash" unicode="&#x141;" horiz-adv-x="390" 
d="M353 431l-155 -131l-32 -194h195l-18 -106h-311l37 212l-50 -43l19 106l49 43l68 390h115l-53 -302l155 130z" />
    <glyph glyph-name="lslash" unicode="&#x142;" horiz-adv-x="243" 
d="M258 436l-53 -47l-68 -389h-109l51 297l-47 -41l20 104l45 39l63 357h108l-44 -264l51 47z" />
    <glyph glyph-name="Nacute" unicode="&#x143;" horiz-adv-x="581" 
d="M470 0h-128l-117 508h-3l-86 -508h-104l123 708h130l113 -512h4l88 512h103zM323 764l114 144h101l-135 -144h-80z" />
    <glyph glyph-name="nacute" unicode="&#x144;" horiz-adv-x="497" 
d="M455 402q0 -17 -3 -38.5t-7 -43.5l-55 -320h-109l56 319q2 13 3.5 25t1.5 24q0 25 -10.5 43t-39.5 18q-38 0 -67 -38t-40 -97l-51 -294h-108l67 381q1 10 4 28.5t6 38t5.5 36t3.5 24.5h103q-2 -14 -5 -38t-6 -44h2q20 42 55.5 70.5t82.5 28.5q30 0 51 -10.5t34.5 -28
t19.5 -39.5t6 -45zM233 578l114 144h101l-135 -144h-80z" />
    <glyph glyph-name="Ncommaaccent" unicode="&#x145;" horiz-adv-x="581" 
d="M470 0h-128l-117 508h-3l-86 -508h-104l123 708h130l113 -512h4l88 512h103zM189 -232h-77l89 187h89z" />
    <glyph glyph-name="ncommaaccent" unicode="&#x146;" horiz-adv-x="497" 
d="M455 402q0 -17 -3 -38.5t-7 -43.5l-55 -320h-109l56 319q2 13 3.5 25t1.5 24q0 25 -10.5 43t-39.5 18q-38 0 -67 -38t-40 -97l-51 -294h-108l67 381q1 10 4 28.5t6 38t5.5 36t3.5 24.5h103q-2 -14 -5 -38t-6 -44h2q20 42 55.5 70.5t82.5 28.5q30 0 51 -10.5t34.5 -28
t19.5 -39.5t6 -45zM143 -232h-77l89 187h89z" />
    <glyph glyph-name="Ncaron" unicode="&#x147;" horiz-adv-x="581" 
d="M470 0h-128l-117 508h-3l-86 -508h-104l123 708h130l113 -512h4l88 512h103zM377 813l85 94h91l-133 -144h-94l-84 144h83z" />
    <glyph glyph-name="ncaron" unicode="&#x148;" horiz-adv-x="497" 
d="M455 402q0 -17 -3 -38.5t-7 -43.5l-55 -320h-109l56 319q2 13 3.5 25t1.5 24q0 25 -10.5 43t-39.5 18q-38 0 -67 -38t-40 -97l-51 -294h-108l67 381q1 10 4 28.5t6 38t5.5 36t3.5 24.5h103q-2 -14 -5 -38t-6 -44h2q20 42 55.5 70.5t82.5 28.5q30 0 51 -10.5t34.5 -28
t19.5 -39.5t6 -45zM306 627l85 94h91l-133 -144h-94l-84 144h83z" />
    <glyph glyph-name="napostrophe" unicode="&#x149;" horiz-adv-x="540" 
d="M499 402q0 -17 -3 -38.5t-7 -43.5l-55 -320h-109l56 319q2 13 3.5 25t1.5 24q0 25 -10.5 43t-39.5 18q-38 0 -67 -38t-40 -97l-51 -294h-108l67 381q1 10 4 28.5t6 38t5.5 36t3.5 24.5h103q-2 -14 -5 -38t-6 -44h2q20 42 55.5 70.5t82.5 28.5q30 0 51 -10.5t34.5 -28
t19.5 -39.5t6 -45zM108 521h-77l89 187h89z" />
    <glyph glyph-name="Omacron" unicode="&#x14c;" horiz-adv-x="587" 
d="M579 459q0 -86 -22.5 -171.5t-63.5 -153t-99.5 -109.5t-131.5 -42q-50 0 -89 19t-65.5 53.5t-40.5 83t-14 107.5q0 86 21.5 171.5t62 154t99.5 111t133 42.5q52 0 91.5 -19.5t66 -54.5t39.5 -84t13 -108zM458 442q0 33 -4 65t-14.5 56.5t-30 40t-49.5 15.5q-45 0 -80 -37
t-59 -92.5t-36.5 -120t-12.5 -120.5q0 -33 5 -62t17 -50.5t31.5 -34t47.5 -12.5q43 0 77.5 33.5t58.5 85.5t36.5 114t12.5 119zM266 869h273l-12 -65h-272z" />
    <glyph glyph-name="omacron" unicode="&#x14d;" horiz-adv-x="465" 
d="M437 333q0 -65 -16.5 -128t-47.5 -112.5t-75.5 -79.5t-99.5 -30q-77 0 -119.5 53t-42.5 140q0 66 16.5 129t48 112t75.5 78.5t100 29.5q77 0 119 -52t42 -140zM330 327q0 47 -15 76t-49 29q-29 0 -52 -25.5t-38.5 -63.5t-24 -82t-8.5 -81q0 -45 15 -73.5t48 -28.5
q30 0 53 25t38.5 62t24 80.5t8.5 81.5zM173 683h273l-12 -65h-272z" />
    <glyph glyph-name="Obreve" unicode="&#x14e;" horiz-adv-x="587" 
d="M579 459q0 -86 -22.5 -171.5t-63.5 -153t-99.5 -109.5t-131.5 -42q-50 0 -89 19t-65.5 53.5t-40.5 83t-14 107.5q0 86 21.5 171.5t62 154t99.5 111t133 42.5q52 0 91.5 -19.5t66 -54.5t39.5 -84t13 -108zM458 442q0 33 -4 65t-14.5 56.5t-30 40t-49.5 15.5q-45 0 -80 -37
t-59 -92.5t-36.5 -120t-12.5 -120.5q0 -33 5 -62t17 -50.5t31.5 -34t47.5 -12.5q43 0 77.5 33.5t58.5 85.5t36.5 114t12.5 119zM390 767q-26 0 -48 7.5t-39 23.5t-26.5 42t-9.5 63h66q0 -36 18.5 -51.5t43.5 -15.5q30 0 53.5 14.5t34.5 52.5h65q-20 -74 -62.5 -105
t-95.5 -31z" />
    <glyph glyph-name="obreve" unicode="&#x14f;" horiz-adv-x="465" 
d="M437 333q0 -65 -16.5 -128t-47.5 -112.5t-75.5 -79.5t-99.5 -30q-77 0 -119.5 53t-42.5 140q0 66 16.5 129t48 112t75.5 78.5t100 29.5q77 0 119 -52t42 -140zM330 327q0 47 -15 76t-49 29q-29 0 -52 -25.5t-38.5 -63.5t-24 -82t-8.5 -81q0 -45 15 -73.5t48 -28.5
q30 0 53 25t38.5 62t24 80.5t8.5 81.5zM290 581q-26 0 -48 7.5t-39 23.5t-26.5 42t-9.5 63h66q0 -35 19 -51q8 -8 19.5 -12t23.5 -4q30 0 53.5 14.5t34.5 52.5h65q-20 -74 -62.5 -105t-95.5 -31z" />
    <glyph glyph-name="Ohungarumlaut" unicode="&#x150;" horiz-adv-x="587" 
d="M579 459q0 -86 -22.5 -171.5t-63.5 -153t-99.5 -109.5t-131.5 -42q-50 0 -89 19t-65.5 53.5t-40.5 83t-14 107.5q0 86 21.5 171.5t62 154t99.5 111t133 42.5q52 0 91.5 -19.5t66 -54.5t39.5 -84t13 -108zM458 442q0 33 -4 65t-14.5 56.5t-30 40t-49.5 15.5q-45 0 -80 -37
t-59 -92.5t-36.5 -120t-12.5 -120.5q0 -33 5 -62t17 -50.5t31.5 -34t47.5 -12.5q43 0 77.5 33.5t58.5 85.5t36.5 114t12.5 119zM261 764l115 144h99l-135 -144h-79zM411 764l114 144h99l-134 -144h-79z" />
    <glyph glyph-name="ohungarumlaut" unicode="&#x151;" horiz-adv-x="465" 
d="M437 333q0 -65 -16.5 -128t-47.5 -112.5t-75.5 -79.5t-99.5 -30q-77 0 -119.5 53t-42.5 140q0 66 16.5 129t48 112t75.5 78.5t100 29.5q77 0 119 -52t42 -140zM330 327q0 47 -15 76t-49 29q-29 0 -52 -25.5t-38.5 -63.5t-24 -82t-8.5 -81q0 -45 15 -73.5t48 -28.5
q30 0 53 25t38.5 62t24 80.5t8.5 81.5zM170 578l115 144h99l-135 -144h-79zM320 578l114 144h99l-134 -144h-79z" />
    <glyph glyph-name="OE" unicode="&#x152;" horiz-adv-x="698" 
d="M710 608h-190l-34 -195h178l-16 -95h-179l-36 -216h204l-18 -102h-343q-111 0 -167 67.5t-56 185.5q0 86 23 168t67 145.5t108.5 102.5t147.5 39h328zM382 609q-44 0 -83 -29.5t-68 -77.5t-45.5 -110.5t-16.5 -128.5q0 -85 34.5 -124.5t91.5 -39.5h29l88 510h-30z" />
    <glyph glyph-name="oe" unicode="&#x153;" horiz-adv-x="724" 
d="M699 354q0 -20 -2.5 -48t-11.5 -79h-262q-2 -12 -3 -24t-1 -23q0 -44 16.5 -71.5t53.5 -27.5q31 0 52.5 19.5t36.5 45.5l75 -49q-28 -49 -70.5 -81.5t-105.5 -32.5q-50 0 -83.5 22t-47.5 66q-25 -41 -62.5 -64.5t-85.5 -23.5q-77 0 -119.5 53t-42.5 140q0 66 16.5 129
t47.5 112t75 78.5t100 29.5q50 0 83.5 -21t45.5 -67q26 42 63.5 65t82.5 23q40 0 68.5 -12.5t46.5 -35.5t26 -54.5t8 -68.5zM600 354q0 38 -14 60t-44 22q-21 0 -39 -13t-31 -33t-22 -43t-12 -42h157q2 14 3.5 26t1.5 23zM330 327q0 47 -15 76t-49 29q-29 0 -52 -25.5
t-38.5 -63.5t-24 -82t-8.5 -81q0 -45 15 -73.5t48 -28.5q30 0 53 25t38.5 62t24 80.5t8.5 81.5z" />
    <glyph glyph-name="Racute" unicode="&#x154;" horiz-adv-x="507" 
d="M519 538q0 -85 -40.5 -141t-106.5 -74l87 -323h-119l-74 304h-70l-54 -304h-110l123 708h182q88 0 135 -42t47 -128zM407 523q0 48 -26 68.5t-64 20.5h-68l-39 -223h70q54 0 90.5 35.5t36.5 98.5zM272 764l114 144h101l-135 -144h-80z" />
    <glyph glyph-name="racute" unicode="&#x155;" horiz-adv-x="299" 
d="M323 413q-5 1 -10 1.5t-13 0.5q-23 0 -42.5 -13.5t-35.5 -36t-27 -51t-16 -58.5l-44 -256h-109l67 381q2 10 5 28.5t6 38t5 36t3 24.5h103q-1 -7 -3 -20.5t-4 -28t-4.5 -28t-3.5 -21.5h3q23 57 56 86t71 29q8 0 16 -2zM150 578l114 144h101l-135 -144h-80z" />
    <glyph glyph-name="Rcommaaccent" unicode="&#x156;" horiz-adv-x="507" 
d="M519 538q0 -85 -40.5 -141t-106.5 -74l87 -323h-119l-74 304h-70l-54 -304h-110l123 708h182q88 0 135 -42t47 -128zM407 523q0 48 -26 68.5t-64 20.5h-68l-39 -223h70q54 0 90.5 35.5t36.5 98.5zM169 -232h-77l89 187h89z" />
    <glyph glyph-name="rcommaaccent" unicode="&#x157;" horiz-adv-x="299" 
d="M323 413q-5 1 -10 1.5t-13 0.5q-23 0 -42.5 -13.5t-35.5 -36t-27 -51t-16 -58.5l-44 -256h-109l67 381q2 10 5 28.5t6 38t5 36t3 24.5h103q-1 -7 -3 -20.5t-4 -28t-4.5 -28t-3.5 -21.5h3q23 57 56 86t71 29q8 0 16 -2zM26 -232h-77l89 187h89z" />
    <glyph glyph-name="Rcaron" unicode="&#x158;" horiz-adv-x="507" 
d="M519 538q0 -85 -40.5 -141t-106.5 -74l87 -323h-119l-74 304h-70l-54 -304h-110l123 708h182q88 0 135 -42t47 -128zM407 523q0 48 -26 68.5t-64 20.5h-68l-39 -223h70q54 0 90.5 35.5t36.5 98.5zM340 813l85 94h91l-133 -144h-94l-84 144h83z" />
    <glyph glyph-name="rcaron" unicode="&#x159;" horiz-adv-x="299" 
d="M323 413q-5 1 -10 1.5t-13 0.5q-23 0 -42.5 -13.5t-35.5 -36t-27 -51t-16 -58.5l-44 -256h-109l67 381q2 10 5 28.5t6 38t5 36t3 24.5h103q-1 -7 -3 -20.5t-4 -28t-4.5 -28t-3.5 -21.5h3q23 57 56 86t71 29q8 0 16 -2zM239 627l85 94h91l-133 -144h-94l-84 144h83z" />
    <glyph glyph-name="Sacute" unicode="&#x15a;" horiz-adv-x="446" 
d="M409 578q-37 46 -96 46q-19 0 -38.5 -7.5t-35 -22t-25.5 -36.5t-10 -51q0 -38 21 -61.5t56 -44.5q22 -14 44.5 -31t40.5 -39.5t29 -51t11 -65.5q0 -57 -18.5 -100t-50 -72t-72.5 -44t-87 -15q-59 0 -108.5 21.5t-76.5 55.5l71 84q20 -26 50 -42t64 -16q48 0 79.5 29
t31.5 83q0 38 -20.5 65t-63.5 53q-22 13 -43 29.5t-37 38t-25.5 49t-9.5 64.5q0 51 17.5 93t47.5 72t71 46.5t89 16.5q54 0 97 -17.5t69 -48.5zM257 764l114 144h101l-135 -144h-80z" />
    <glyph glyph-name="sacute" unicode="&#x15b;" horiz-adv-x="366" 
d="M314 406q-14 17 -34 26t-46 9q-29 0 -51 -18.5t-22 -52.5q0 -14 4 -24t11.5 -18t19 -15t27.5 -15q42 -23 70.5 -54.5t28.5 -85.5q0 -46 -16 -79t-42 -54.5t-58.5 -31.5t-66.5 -10q-47 0 -88 18t-64 47l66 70q15 -19 37 -33t54 -14q30 0 52 19.5t22 54.5q0 30 -20 49.5
t-50 34.5q-38 18 -63.5 48.5t-25.5 80.5q0 42 15.5 73t41.5 52t58.5 31.5t67.5 10.5q43 0 76 -13.5t53 -33.5zM178 578l114 144h101l-135 -144h-80z" />
    <glyph glyph-name="Scircumflex" unicode="&#x15c;" horiz-adv-x="446" 
d="M409 578q-37 46 -96 46q-19 0 -38.5 -7.5t-35 -22t-25.5 -36.5t-10 -51q0 -38 21 -61.5t56 -44.5q22 -14 44.5 -31t40.5 -39.5t29 -51t11 -65.5q0 -57 -18.5 -100t-50 -72t-72.5 -44t-87 -15q-59 0 -108.5 21.5t-76.5 55.5l71 84q20 -26 50 -42t64 -16q48 0 79.5 29
t31.5 83q0 38 -20.5 65t-63.5 53q-22 13 -43 29.5t-37 38t-25.5 49t-9.5 64.5q0 51 17.5 93t47.5 72t71 46.5t89 16.5q54 0 97 -17.5t69 -48.5zM356 858l-84 -94h-90l134 144h94l82 -144h-83z" />
    <glyph glyph-name="scircumflex" unicode="&#x15d;" horiz-adv-x="366" 
d="M314 406q-14 17 -34 26t-46 9q-29 0 -51 -18.5t-22 -52.5q0 -14 4 -24t11.5 -18t19 -15t27.5 -15q42 -23 70.5 -54.5t28.5 -85.5q0 -46 -16 -79t-42 -54.5t-58.5 -31.5t-66.5 -10q-47 0 -88 18t-64 47l66 70q15 -19 37 -33t54 -14q30 0 52 19.5t22 54.5q0 30 -20 49.5
t-50 34.5q-38 18 -63.5 48.5t-25.5 80.5q0 42 15.5 73t41.5 52t58.5 31.5t67.5 10.5q43 0 76 -13.5t53 -33.5zM268 672l-84 -94h-90l134 144h94l82 -144h-83z" />
    <glyph glyph-name="Scedilla" unicode="&#x15e;" horiz-adv-x="446" 
d="M130 -232q-23 0 -49.5 4.5t-46.5 15.5l28 48q14 -8 32.5 -11t35.5 -3q21 0 39.5 8t18.5 29q0 17 -11 25t-28 8q-22 0 -41 -8l-20 21l64 79q-51 5 -93 25.5t-66 50.5l71 84q20 -26 50 -42t64 -16q48 0 79.5 29t31.5 83q0 38 -20.5 65t-63.5 53q-22 13 -43 29.5t-37 38
t-25.5 49t-9.5 64.5q0 51 17.5 93t47.5 72t71 46.5t89 16.5q54 0 97 -17.5t69 -48.5l-72 -81q-37 46 -96 46q-19 0 -38.5 -7.5t-35 -22t-25.5 -36.5t-10 -51q0 -38 21 -61.5t56 -44.5q22 -14 44.5 -31t40.5 -39.5t29 -51t11 -65.5q0 -51 -15.5 -91.5t-41.5 -69t-61 -45.5
t-75 -22l-44 -54q5 1 11 1.5t14 0.5q11 0 23.5 -3t23 -11t17.5 -21.5t7 -33.5q0 -28 -13.5 -46.5t-34 -30t-44 -16t-43.5 -4.5z" />
    <glyph glyph-name="scedilla" unicode="&#x15f;" horiz-adv-x="366" 
d="M91 -232q-23 0 -49.5 4.5t-46.5 15.5l28 48q14 -8 32.5 -11t35.5 -3q21 0 39.5 8t18.5 29q0 17 -11 25t-28 8q-22 0 -41 -8l-20 21l64 80q-39 5 -72.5 21.5t-53.5 41.5l66 70q15 -19 37 -33t54 -14q30 0 52 19.5t22 54.5q0 30 -20 49.5t-50 34.5q-38 18 -63.5 48.5
t-25.5 80.5q0 42 15.5 73t41.5 52t58.5 31.5t67.5 10.5q43 0 76 -13.5t53 -33.5l-57 -72q-14 17 -34 26t-46 9q-29 0 -51 -18.5t-22 -52.5q0 -14 4 -24t11.5 -18t19 -15t27.5 -15q42 -23 70.5 -54.5t28.5 -85.5q0 -40 -12.5 -70.5t-33 -51.5t-47 -33.5t-55.5 -16.5l-44 -54
q5 1 11 1.5t14 0.5q11 0 23.5 -3t23 -11t17.5 -21.5t7 -33.5q0 -28 -13.5 -46.5t-34 -30t-44 -16t-43.5 -4.5z" />
    <glyph glyph-name="Scaron" unicode="&#x160;" horiz-adv-x="446" 
d="M409 578q-37 46 -96 46q-19 0 -38.5 -7.5t-35 -22t-25.5 -36.5t-10 -51q0 -38 21 -61.5t56 -44.5q22 -14 44.5 -31t40.5 -39.5t29 -51t11 -65.5q0 -57 -18.5 -100t-50 -72t-72.5 -44t-87 -15q-59 0 -108.5 21.5t-76.5 55.5l71 84q20 -26 50 -42t64 -16q48 0 79.5 29
t31.5 83q0 38 -20.5 65t-63.5 53q-22 13 -43 29.5t-37 38t-25.5 49t-9.5 64.5q0 51 17.5 93t47.5 72t71 46.5t89 16.5q54 0 97 -17.5t69 -48.5zM325 813l85 94h91l-133 -144h-94l-84 144h83z" />
    <glyph glyph-name="scaron" unicode="&#x161;" horiz-adv-x="366" 
d="M314 406q-14 17 -34 26t-46 9q-29 0 -51 -18.5t-22 -52.5q0 -14 4 -24t11.5 -18t19 -15t27.5 -15q42 -23 70.5 -54.5t28.5 -85.5q0 -46 -16 -79t-42 -54.5t-58.5 -31.5t-66.5 -10q-47 0 -88 18t-64 47l66 70q15 -19 37 -33t54 -14q30 0 52 19.5t22 54.5q0 30 -20 49.5
t-50 34.5q-38 18 -63.5 48.5t-25.5 80.5q0 42 15.5 73t41.5 52t58.5 31.5t67.5 10.5q43 0 76 -13.5t53 -33.5zM249 627l85 94h91l-133 -144h-94l-84 144h83z" />
    <glyph glyph-name="Tcommaaccent" unicode="&#x162;" horiz-adv-x="373" 
d="M440 611h-132l-106 -611h-114l107 611h-133l17 97h378zM88 -232h-77l89 187h89z" />
    <glyph glyph-name="tcommaaccent" unicode="&#x163;" horiz-adv-x="277" 
d="M295 421h-85l-46 -260q-2 -9 -3 -19.5t-1 -17.5q0 -40 42 -40q8 0 18 2t18 5l-13 -87q-13 -6 -30 -9t-34 -3q-54 0 -81.5 27.5t-27.5 76.5q0 18 4 41l50 284h-68l15 87h67l23 132h105l-23 -132h86zM67 -232h-77l89 187h89z" />
    <glyph glyph-name="Tcaron" unicode="&#x164;" horiz-adv-x="373" 
d="M440 611h-132l-106 -611h-114l107 611h-133l17 97h378zM279 813l85 94h91l-133 -144h-94l-84 144h83z" />
    <glyph glyph-name="tcaron" unicode="&#x165;" horiz-adv-x="277" 
d="M295 421h-85l-46 -260q-2 -9 -3 -19.5t-1 -17.5q0 -40 42 -40q8 0 18 2t18 5l-13 -87q-13 -6 -30 -9t-34 -3q-54 0 -81.5 27.5t-27.5 76.5q0 18 4 41l50 284h-68l15 87h67l23 132h105l-23 -132h86zM349 544h-77l89 187h89z" />
    <glyph glyph-name="Tbar" unicode="&#x166;" horiz-adv-x="373" 
d="M104 503h72l19 108h-133l17 97h378l-17 -97h-133l-18 -108h77l-12 -62h-76l-76 -441h-114l77 441h-72z" />
    <glyph glyph-name="tbar" unicode="&#x167;" horiz-adv-x="277" 
d="M38 325h51l17 96h-68l15 87h67l23 132h105l-23 -132h86l-16 -87h-85l-17 -96h70l-12 -65h-70l-17 -100q-2 -9 -3 -19t-1 -17q0 -40 40 -40q9 0 19.5 2t18.5 5l-13 -87q-13 -6 -30.5 -9t-34.5 -3q-54 0 -81 27.5t-27 75.5q0 18 4 41l21 124h-50z" />
    <glyph glyph-name="Utilde" unicode="&#x168;" horiz-adv-x="562" 
d="M506 251q-10 -56 -27.5 -105t-47.5 -85t-74 -57t-106 -21q-50 0 -86 14.5t-60 40.5t-35.5 60.5t-11.5 75.5q0 17 1.5 36t5.5 41l80 457h114l-79 -446q-3 -17 -5 -34.5t-2 -34.5q0 -43 18.5 -73t68.5 -30q33 0 55.5 14t37.5 38t24.5 55t15.5 65l79 446h114zM539 887
q-11 -53 -38.5 -84t-63.5 -31q-17 0 -32.5 5t-32.5 19q-20 14 -29.5 18t-22.5 4q-28 0 -41 -44h-52q11 51 38 82.5t64 31.5q19 0 33.5 -5.5t31.5 -18.5q20 -14 30 -18t23 -4q16 0 25 10.5t15 34.5h52z" />
    <glyph glyph-name="utilde" unicode="&#x169;" horiz-adv-x="497" 
d="M407 127q-2 -10 -4.5 -27.5t-5.5 -36.5t-5.5 -36.5t-3.5 -26.5h-103q2 15 4.5 38.5t6.5 45.5h-2q-20 -42 -55 -71.5t-83 -29.5q-30 0 -51 10.5t-33.5 28t-18.5 40t-6 45.5q0 16 2 38t6 43l56 320h108l-56 -319q-5 -25 -5 -48q0 -26 10.5 -44t39.5 -18q19 0 36.5 10.5
t31.5 28.5t24 42.5t15 53.5l51 294h109zM471 703q-11 -53 -38.5 -84t-63.5 -31q-17 0 -32.5 5t-32.5 19q-20 14 -29.5 18t-22.5 4q-28 0 -41 -44h-52q11 51 38 82.5t64 31.5q19 0 33.5 -5.5t31.5 -18.5q20 -14 30 -18t23 -4q16 0 25 10.5t15 34.5h52z" />
    <glyph glyph-name="Umacron" unicode="&#x16a;" horiz-adv-x="562" 
d="M506 251q-10 -56 -27.5 -105t-47.5 -85t-74 -57t-106 -21q-50 0 -86 14.5t-60 40.5t-35.5 60.5t-11.5 75.5q0 17 1.5 36t5.5 41l80 457h114l-79 -446q-3 -17 -5 -34.5t-2 -34.5q0 -43 18.5 -73t68.5 -30q33 0 55.5 14t37.5 38t24.5 55t15.5 65l79 446h114zM256 869h273
l-12 -65h-272z" />
    <glyph glyph-name="umacron" unicode="&#x16b;" horiz-adv-x="497" 
d="M407 127q-2 -10 -4.5 -27.5t-5.5 -36.5t-5.5 -36.5t-3.5 -26.5h-103q2 15 4.5 38.5t6.5 45.5h-2q-20 -42 -55 -71.5t-83 -29.5q-30 0 -51 10.5t-33.5 28t-18.5 40t-6 45.5q0 16 2 38t6 43l56 320h108l-56 -319q-5 -25 -5 -48q0 -26 10.5 -44t39.5 -18q19 0 36.5 10.5
t31.5 28.5t24 42.5t15 53.5l51 294h109zM186 683h273l-12 -65h-272z" />
    <glyph glyph-name="Ubreve" unicode="&#x16c;" horiz-adv-x="562" 
d="M506 251q-10 -56 -27.5 -105t-47.5 -85t-74 -57t-106 -21q-50 0 -86 14.5t-60 40.5t-35.5 60.5t-11.5 75.5q0 17 1.5 36t5.5 41l80 457h114l-79 -446q-3 -17 -5 -34.5t-2 -34.5q0 -43 18.5 -73t68.5 -30q33 0 55.5 14t37.5 38t24.5 55t15.5 65l79 446h114zM373 767
q-26 0 -48 7.5t-39 23.5t-26.5 42t-9.5 63h66q0 -36 18.5 -51.5t43.5 -15.5q30 0 53.5 14.5t34.5 52.5h65q-20 -74 -62.5 -105t-95.5 -31z" />
    <glyph glyph-name="ubreve" unicode="&#x16d;" horiz-adv-x="497" 
d="M407 127q-2 -10 -4.5 -27.5t-5.5 -36.5t-5.5 -36.5t-3.5 -26.5h-103q2 15 4.5 38.5t6.5 45.5h-2q-20 -42 -55 -71.5t-83 -29.5q-30 0 -51 10.5t-33.5 28t-18.5 40t-6 45.5q0 16 2 38t6 43l56 320h108l-56 -319q-5 -25 -5 -48q0 -26 10.5 -44t39.5 -18q19 0 36.5 10.5
t31.5 28.5t24 42.5t15 53.5l51 294h109zM300 581q-26 0 -48 7.5t-39 23.5t-26.5 42t-9.5 63h66q0 -35 19 -51q8 -8 19.5 -12t23.5 -4q30 0 53.5 14.5t34.5 52.5h65q-20 -74 -62.5 -105t-95.5 -31z" />
    <glyph glyph-name="Uring" unicode="&#x16e;" horiz-adv-x="562" 
d="M506 251q-10 -56 -27.5 -105t-47.5 -85t-74 -57t-106 -21q-50 0 -86 14.5t-60 40.5t-35.5 60.5t-11.5 75.5q0 17 1.5 36t5.5 41l80 457h114l-79 -446q-3 -17 -5 -34.5t-2 -34.5q0 -43 18.5 -73t68.5 -30q33 0 55.5 14t37.5 38t24.5 55t15.5 65l79 446h114zM483 869
q0 -24 -8 -46t-22.5 -38.5t-34.5 -26.5t-43 -10q-42 0 -63 24t-21 62q0 25 8 47.5t22 39t33 26.5t42 10q44 0 65.5 -26t21.5 -62zM442 866q0 21 -11.5 37.5t-36.5 16.5q-30 0 -46.5 -25.5t-16.5 -56.5q0 -21 11.5 -36t35.5 -15q14 0 26 7t20.5 18t13 25t4.5 29z" />
    <glyph glyph-name="uring" unicode="&#x16f;" horiz-adv-x="497" 
d="M407 127q-2 -10 -4.5 -27.5t-5.5 -36.5t-5.5 -36.5t-3.5 -26.5h-103q2 15 4.5 38.5t6.5 45.5h-2q-20 -42 -55 -71.5t-83 -29.5q-30 0 -51 10.5t-33.5 28t-18.5 40t-6 45.5q0 16 2 38t6 43l56 320h108l-56 -319q-5 -25 -5 -48q0 -26 10.5 -44t39.5 -18q19 0 36.5 10.5
t31.5 28.5t24 42.5t15 53.5l51 294h109zM407 683q0 -24 -8 -46t-22.5 -38.5t-34.5 -26.5t-43 -10q-42 0 -63 24t-21 62q0 25 8 47.5t22 39.5t33 26.5t42 9.5q44 0 65.5 -25.5t21.5 -62.5zM366 680q0 21 -11.5 37.5t-36.5 16.5q-30 0 -46.5 -25.5t-16.5 -56.5q0 -21 11.5 -36
t35.5 -15q14 0 26 7t20.5 18t13 25t4.5 29z" />
    <glyph glyph-name="Uhungarumlaut" unicode="&#x170;" horiz-adv-x="562" 
d="M506 251q-10 -56 -27.5 -105t-47.5 -85t-74 -57t-106 -21q-50 0 -86 14.5t-60 40.5t-35.5 60.5t-11.5 75.5q0 17 1.5 36t5.5 41l80 457h114l-79 -446q-3 -17 -5 -34.5t-2 -34.5q0 -43 18.5 -73t68.5 -30q33 0 55.5 14t37.5 38t24.5 55t15.5 65l79 446h114zM256 764
l115 144h99l-135 -144h-79zM406 764l114 144h99l-134 -144h-79z" />
    <glyph glyph-name="uhungarumlaut" unicode="&#x171;" horiz-adv-x="497" 
d="M407 127q-2 -10 -4.5 -27.5t-5.5 -36.5t-5.5 -36.5t-3.5 -26.5h-103q2 15 4.5 38.5t6.5 45.5h-2q-20 -42 -55 -71.5t-83 -29.5q-30 0 -51 10.5t-33.5 28t-18.5 40t-6 45.5q0 16 2 38t6 43l56 320h108l-56 -319q-5 -25 -5 -48q0 -26 10.5 -44t39.5 -18q19 0 36.5 10.5
t31.5 28.5t24 42.5t15 53.5l51 294h109zM185 578l115 144h99l-135 -144h-79zM335 578l114 144h99l-134 -144h-79z" />
    <glyph glyph-name="Uogonek" unicode="&#x172;" horiz-adv-x="562" 
d="M213 -226q-35 0 -58 19t-23 61q0 19 8 37t21 34.5t29.5 31.5t33.5 28q-85 8 -125.5 60.5t-40.5 128.5q0 17 1.5 36t5.5 41l80 457h114l-79 -446q-3 -17 -5 -34.5t-2 -34.5q0 -43 18.5 -73t68.5 -30q33 0 55.5 14t37.5 38t24.5 55t15.5 65l79 446h114l-80 -457
q-9 -50 -24 -94.5t-39 -79.5t-59 -58.5t-84 -31.5q-43 -35 -65 -61t-22 -49q0 -35 32 -35q27 0 52 20l14 -50q-21 -17 -46.5 -27.5t-51.5 -10.5z" />
    <glyph glyph-name="uogonek" unicode="&#x173;" horiz-adv-x="497" 
d="M276 -226q-35 0 -58 19t-23 61q0 22 11 42.5t27.5 39.5t37 35t39.5 29h-25q2 15 4.5 38.5t6.5 45.5h-2q-20 -42 -55 -71.5t-83 -29.5q-30 0 -51 10.5t-33.5 28t-18.5 40t-6 45.5q0 16 2 38t6 43l56 320h108l-56 -319q-5 -25 -5 -48q0 -26 10.5 -44t39.5 -18
q19 0 36.5 10.5t31.5 28.5t24 42.5t15 53.5l51 294h109l-68 -381q-2 -10 -4.5 -27.5t-5.5 -36.5t-5.5 -36.5t-3.5 -26.5h-9q-51 -41 -77 -69t-26 -54q0 -35 32 -35q27 0 52 20l14 -50q-21 -17 -46.5 -27.5t-51.5 -10.5z" />
    <glyph glyph-name="Wcircumflex" unicode="&#x174;" horiz-adv-x="761" 
d="M574 0h-133l-5 540h-2l-194 -540h-133l-12 708h117l-4 -557h3l195 557h121l4 -557h3l189 557h110zM503 858l-84 -94h-90l134 144h94l82 -144h-83z" />
    <glyph glyph-name="wcircumflex" unicode="&#x175;" horiz-adv-x="627" 
d="M463 0h-116l-10 359l-141 -359h-115l-16 508h108l-2 -380h2l142 380h96l11 -380h1l133 380h107zM396 672l-84 -94h-90l134 144h94l82 -144h-83z" />
    <glyph glyph-name="Ycircumflex" unicode="&#x176;" horiz-adv-x="460" 
d="M291 273l-48 -273h-113l47 273l-99 435h120l55 -318h2l166 318h125zM342 858l-84 -94h-90l134 144h94l82 -144h-83z" />
    <glyph glyph-name="ycircumflex" unicode="&#x177;" horiz-adv-x="417" 
d="M202 -73q-17 -38 -34 -68.5t-39 -52.5t-49 -34t-63 -12q-18 0 -32 2.5t-25 6.5l20 96q10 -6 33 -6q28 0 44 16.5t29 46.5l28 65l-58 521h112l24 -387h2l152 387h111zM291 672l-84 -94h-90l134 144h94l82 -144h-83z" />
    <glyph glyph-name="Ydieresis" unicode="&#x178;" horiz-adv-x="460" 
d="M291 273l-48 -273h-113l47 273l-99 435h120l55 -318h2l166 318h125zM307 851q0 -29 -17.5 -48.5t-43.5 -19.5q-25 0 -38 16t-13 36q0 26 17.5 46.5t43.5 20.5q24 0 37.5 -14.5t13.5 -36.5zM473 851q0 -29 -17.5 -48.5t-43.5 -19.5q-24 0 -37.5 16t-13.5 36
q0 26 17.5 46.5t43.5 20.5q24 0 37.5 -14.5t13.5 -36.5z" />
    <glyph glyph-name="Zacute" unicode="&#x179;" horiz-adv-x="424" 
d="M457 615l-328 -512h240l-18 -103h-371l16 95l329 513h-220l17 100h350zM234 764l114 144h101l-135 -144h-80z" />
    <glyph glyph-name="zacute" unicode="&#x17a;" horiz-adv-x="360" 
d="M364 421l-250 -329h194l-16 -92h-311l15 91l248 325h-175l16 92h294zM171 578l114 144h101l-135 -144h-80z" />
    <glyph glyph-name="Zdotaccent" unicode="&#x17b;" horiz-adv-x="424" 
d="M457 615l-328 -512h240l-18 -103h-371l16 95l329 513h-220l17 100h350zM376 852q0 -32 -20 -54t-50 -22q-28 0 -42.5 17.5t-14.5 40.5q0 15 5.5 28.5t14.5 24t22 17t28 6.5q27 0 42 -16.5t15 -41.5z" />
    <glyph glyph-name="zdotaccent" unicode="&#x17c;" horiz-adv-x="360" 
d="M364 421l-250 -329h194l-16 -92h-311l15 91l248 325h-175l16 92h294zM312 666q0 -32 -20 -54t-50 -22q-28 0 -42.5 17.5t-14.5 40.5q0 15 5.5 28.5t14.5 24t22 17t28 6.5q27 0 42 -16t15 -42z" />
    <glyph glyph-name="Zcaron" unicode="&#x17d;" horiz-adv-x="424" 
d="M457 615l-328 -512h240l-18 -103h-371l16 95l329 513h-220l17 100h350zM301 813l85 94h91l-133 -144h-94l-84 144h83z" />
    <glyph glyph-name="zcaron" unicode="&#x17e;" horiz-adv-x="360" 
d="M364 421l-250 -329h194l-16 -92h-311l15 91l248 325h-175l16 92h294zM241 627l85 94h91l-133 -144h-94l-84 144h83z" />
    <glyph glyph-name="florin" unicode="&#x192;" 
d="M505 609q-20 15 -46 15q-33 0 -52.5 -23.5t-33.5 -62.5l-37 -109h102l-15 -83h-117l-112 -331q-24 -69 -65 -112.5t-109 -43.5q-20 0 -37.5 2.5t-30.5 8.5l31 94q13 -8 29 -8q34 0 51 27t32 72l99 291h-94l16 83h103l32 101q13 40 29.5 75.5t40.5 61.5t56 41.5t77 15.5
q31 0 55 -7t38 -17z" />
    <glyph glyph-name="Scommaaccent" unicode="&#x218;" horiz-adv-x="446" 
d="M409 578q-37 46 -96 46q-19 0 -38.5 -7.5t-35 -22t-25.5 -36.5t-10 -51q0 -38 21 -61.5t56 -44.5q22 -14 44.5 -31t40.5 -39.5t29 -51t11 -65.5q0 -57 -18.5 -100t-50 -72t-72.5 -44t-87 -15q-59 0 -108.5 21.5t-76.5 55.5l71 84q20 -26 50 -42t64 -16q48 0 79.5 29
t31.5 83q0 38 -20.5 65t-63.5 53q-22 13 -43 29.5t-37 38t-25.5 49t-9.5 64.5q0 51 17.5 93t47.5 72t71 46.5t89 16.5q54 0 97 -17.5t69 -48.5zM109 -232h-77l89 187h89z" />
    <glyph glyph-name="scommaaccent" unicode="&#x219;" horiz-adv-x="366" 
d="M314 406q-14 17 -34 26t-46 9q-29 0 -51 -18.5t-22 -52.5q0 -14 4 -24t11.5 -18t19 -15t27.5 -15q42 -23 70.5 -54.5t28.5 -85.5q0 -46 -16 -79t-42 -54.5t-58.5 -31.5t-66.5 -10q-47 0 -88 18t-64 47l66 70q15 -19 37 -33t54 -14q30 0 52 19.5t22 54.5q0 30 -20 49.5
t-50 34.5q-38 18 -63.5 48.5t-25.5 80.5q0 42 15.5 73t41.5 52t58.5 31.5t67.5 10.5q43 0 76 -13.5t53 -33.5zM72 -232h-77l89 187h89z" />
    <glyph glyph-name="uni021A" unicode="&#x21a;" horiz-adv-x="373" 
d="M440 611h-132l-106 -611h-114l107 611h-133l17 97h378zM88 -232h-77l89 187h89z" />
    <glyph glyph-name="uni021B" unicode="&#x21b;" horiz-adv-x="277" 
d="M295 421h-85l-46 -260q-2 -9 -3 -19.5t-1 -17.5q0 -40 42 -40q8 0 18 2t18 5l-13 -87q-13 -6 -30 -9t-34 -3q-54 0 -81.5 27.5t-27.5 76.5q0 18 4 41l50 284h-68l15 87h67l23 132h105l-23 -132h86zM67 -232h-77l89 187h89z" />
    <glyph glyph-name="circumflex" unicode="&#x2c6;" horiz-adv-x="243" 
d="M202 672l-84 -94h-90l134 144h94l82 -144h-83z" />
    <glyph glyph-name="caron" unicode="&#x2c7;" horiz-adv-x="243" 
d="M188 627l85 94h91l-133 -144h-94l-84 144h83z" />
    <glyph glyph-name="uni02C9" unicode="&#x2c9;" horiz-adv-x="243" 
d="M65 869h273l-12 -65h-272z" />
    <glyph glyph-name="breve" unicode="&#x2d8;" horiz-adv-x="243" 
d="M190 581q-26 0 -48 7.5t-39 23.5t-26.5 42t-9.5 63h66q0 -35 19 -51q8 -8 19.5 -12t23.5 -4q30 0 53.5 14.5t34.5 52.5h65q-20 -74 -62.5 -105t-95.5 -31z" />
    <glyph glyph-name="dotaccent" unicode="&#x2d9;" horiz-adv-x="243" 
d="M256 666q0 -32 -20 -54t-50 -22q-28 0 -42.5 17.5t-14.5 40.5q0 15 5.5 28.5t14.5 24t22 17t28 6.5q27 0 42 -16t15 -42z" />
    <glyph glyph-name="ring" unicode="&#x2da;" horiz-adv-x="243" 
d="M296 683q0 -24 -8 -46t-22.5 -38.5t-34.5 -26.5t-43 -10q-42 0 -63 24t-21 62q0 25 8 47.5t22 39.5t33 26.5t42 9.5q44 0 65.5 -25.5t21.5 -62.5zM255 680q0 21 -11.5 37.5t-36.5 16.5q-30 0 -46.5 -25.5t-16.5 -56.5q0 -21 11.5 -36t35.5 -15q14 0 26 7t20.5 18t13 25
t4.5 29z" />
    <glyph glyph-name="ogonek" unicode="&#x2db;" horiz-adv-x="243" 
d="M43 -226q-35 0 -58 19t-23 61q0 22 11 42.5t27.5 39.5t37 35t39.5 29h69q-51 -41 -77 -69t-26 -54q0 -35 32 -35q27 0 52 20l14 -50q-21 -17 -46.5 -27.5t-51.5 -10.5z" />
    <glyph glyph-name="tilde" unicode="&#x2dc;" horiz-adv-x="247" 
d="M352 703q-11 -53 -38.5 -84t-63.5 -31q-17 0 -32.5 5t-32.5 19q-20 14 -29.5 18t-22.5 4q-28 0 -41 -44h-52q11 51 38 82.5t64 31.5q19 0 33.5 -5.5t31.5 -18.5q20 -14 30 -18t23 -4q16 0 25 10.5t15 34.5h52v0z" />
    <glyph glyph-name="hungarumlaut" unicode="&#x2dd;" horiz-adv-x="243" 
d="M41 578l115 144h99l-135 -144h-79zM191 578l114 144h99l-134 -144h-79z" />
    <glyph glyph-name="uni0394" unicode="&#x394;" horiz-adv-x="685" 
d="M-42 0l421 712h115l133 -712h-669zM407 581l-274 -477h358z" />
    <glyph glyph-name="uni03A9" unicode="&#x3a9;" horiz-adv-x="759" 
d="M375 0l40 189q40 7 73.5 26.5t59 47.5t43 62t25.5 72q3 13 4 25.5t1 24.5q0 36 -11 67t-32.5 53.5t-52.5 35.5t-70 13q-47 0 -89 -17.5t-76 -47.5t-57.5 -70t-32.5 -85q-6 -30 -6 -57q0 -57 28.5 -95.5t87.5 -54.5l-40 -189h-274l22 106h172l7 32q-66 22 -95.5 71.5
t-29.5 115.5q0 38 9 79q15 69 53 127.5t91.5 100.5t118 65.5t132.5 23.5q59 0 108.5 -17.5t85 -49t55.5 -77t20 -100.5q0 -32 -8 -70q-10 -47 -28.5 -89.5t-47 -78t-67 -61.5t-87.5 -40l-7 -32h173l-22 -106h-276z" />
    <glyph glyph-name="uni03BC" unicode="&#x3bc;" horiz-adv-x="574" 
d="M240 480l-52 -243q-3 -14 -6 -32t-3 -35q0 -29 13.5 -51.5t53.5 -22.5q30 0 53 10t39.5 27t27.5 39t16 46l56 262h120l-102 -480h-114l16 77h-2q-24 -36 -61 -62.5t-95 -26.5q-18 0 -35 6t-25 18l-51 -240h-120l151 708h120z" />
    <glyph glyph-name="pi" unicode="&#x3c0;" horiz-adv-x="593" 
d="M532 13q-23 -10 -49.5 -15t-49.5 -5q-48 0 -66 20t-18 53q0 24 8 58l54 254h-183l-80 -378h-117l80 378h-70l22 102h566l-22 -102h-79l-51 -237q-2 -8 -3 -15.5t-1 -14.5q0 -12 6 -20t24 -8q21 0 46 10l-17 -80v0z" />
    <glyph glyph-name="endash" unicode="&#x2013;" horiz-adv-x="354" 
d="M332 228h-312l15 81h312z" />
    <glyph glyph-name="emdash" unicode="&#x2014;" horiz-adv-x="454" 
d="M433 228h-412l15 81h412z" />
    <glyph glyph-name="quoteleft" unicode="&#x2018;" horiz-adv-x="203" 
d="M177 708h77l-89 -247h-89z" />
    <glyph glyph-name="quoteright" unicode="&#x2019;" horiz-adv-x="203" 
d="M153 461h-77l89 247h89z" />
    <glyph glyph-name="quotesinglbase" unicode="&#x201a;" horiz-adv-x="203" 
d="M49 -122h-77l89 247h89z" />
    <glyph glyph-name="quotedblleft" unicode="&#x201c;" horiz-adv-x="351" 
d="M325 708h77l-89 -247h-89zM179 708h77l-89 -247h-89z" />
    <glyph glyph-name="quotedblright" unicode="&#x201d;" horiz-adv-x="349" 
d="M153 461h-77l89 247h89zM299 461h-77l89 247h89z" />
    <glyph glyph-name="quotedblbase" unicode="&#x201e;" horiz-adv-x="349" 
d="M49 -122h-77l89 247h89zM195 -122h-77l89 247h89z" />
    <glyph glyph-name="dagger" unicode="&#x2020;" horiz-adv-x="396" 
d="M184 -129h-96l96 541h-140l17 94h139l36 202h96l-36 -202h140l-17 -94h-140z" />
    <glyph glyph-name="daggerdbl" unicode="&#x2021;" horiz-adv-x="396" 
d="M184 -129h-96l33 188h-140l17 91h139l49 279h-139l16 91h140l33 188h96l-33 -188h139l-16 -91h-140l-48 -279h139l-17 -91h-139z" />
    <glyph glyph-name="bullet" unicode="&#x2022;" horiz-adv-x="500" 
d="M73 354q0 37 14 69t38 56t56 38t69 14t69 -14t56 -38t38 -56t14 -69t-14 -69t-38 -56t-56 -38t-69 -14t-69 14t-56 38t-38 56t-14 69z" />
    <glyph glyph-name="ellipsis" unicode="&#x2026;" horiz-adv-x="900" 
d="M789 72q0 -34 -20.5 -57t-53.5 -23q-28 0 -43 18.5t-15 43.5q0 30 20 54t52 24q29 0 44.5 -17t15.5 -43zM489 72q0 -34 -20.5 -57t-53.5 -23q-28 0 -43 18.5t-15 43.5q0 30 20 54t52 24q29 0 44.5 -17t15.5 -43zM189 72q0 -34 -20.5 -57t-53.5 -23q-28 0 -43 18.5
t-15 43.5q0 30 20 54t52 24q29 0 44.5 -17t15.5 -43z" />
    <glyph glyph-name="perthousand" unicode="&#x2030;" horiz-adv-x="926" 
d="M351 592q0 -43 -12 -83.5t-34 -72.5t-52.5 -51.5t-67.5 -19.5q-54 0 -81.5 36.5t-27.5 94.5q0 42 11.5 83t33.5 73.5t52.5 52t68.5 19.5q54 0 81.5 -37t27.5 -95zM269 586q0 29 -9 45.5t-29 16.5q-17 0 -31 -14.5t-23.5 -36t-14.5 -47t-5 -47.5q0 -29 9.5 -46.5
t29.5 -17.5q18 0 31.5 15t22.5 37t14 47.5t5 47.5zM611 214q0 -43 -12 -83.5t-34 -72.5t-52.5 -51.5t-67.5 -19.5q-54 0 -81.5 36.5t-27.5 94.5q0 42 11.5 83t33.5 73.5t52.5 52t68.5 19.5q54 0 81.5 -37t27.5 -95zM529 208q0 29 -9 45.5t-29 16.5q-17 0 -31 -14.5
t-23.5 -36t-14.5 -47t-5 -47.5q0 -29 9.5 -46.5t29.5 -17.5q18 0 31.5 15t22.5 37t14 47.5t5 47.5zM916 214q0 -43 -12 -83.5t-34 -72.5t-52.5 -51.5t-67.5 -19.5q-54 0 -81.5 36.5t-27.5 94.5q0 42 11.5 83t33.5 73.5t52.5 52t68.5 19.5q54 0 81.5 -37t27.5 -95zM834 208
q0 29 -9 45.5t-29 16.5q-17 0 -31 -14.5t-23.5 -36t-14.5 -47t-5 -47.5q0 -29 9.5 -46.5t29.5 -17.5q18 0 31.5 15t22.5 37t14 47.5t5 47.5zM161 -23l-57 23l422 738l55 -24z" />
    <glyph glyph-name="guilsinglleft" unicode="&#x2039;" horiz-adv-x="230" 
d="M35 259l141 216l56 -35l-121 -189l54 -187l-65 -27z" />
    <glyph glyph-name="guilsinglright" unicode="&#x203a;" horiz-adv-x="230" 
d="M201 254l-142 -217l-56 36l122 189l-55 187l66 26z" />
    <glyph glyph-name="fraction" unicode="&#x2044;" horiz-adv-x="100" 
d="M-162 -5l407 741l54 -18l-406 -739z" />
    <glyph glyph-name="Euro" unicode="&#x20ac;" 
d="M508 614q-11 7 -33.5 11.5t-48.5 4.5q-57 0 -101 -40.5t-72 -114.5h209l-32 -74h-202q-6 -17 -11 -42.5t-7 -49.5h189l-30 -73h-161q2 -73 34 -113.5t88 -40.5q29 0 54.5 6.5t44.5 16.5l-3 -96q-17 -9 -47 -18t-68 -9q-52 0 -92 19t-67 53t-41.5 80.5t-15.5 101.5h-72
l30 73h46q1 9 3 22t4.5 25.5t5 24.5t5.5 20h-63l31 74h50q95 251 303 251q32 0 62 -6.5t47 -14.5z" />
    <glyph glyph-name="afii61289" unicode="&#x2113;" horiz-adv-x="500" 
d="M486 604q0 -86 -68 -169.5t-185 -165.5q-11 -45 -17 -72.5t-9 -43.5t-3.5 -23.5t-0.5 -12.5q0 -27 14.5 -38t32.5 -11q20 0 42 9t56 32h2l28 -65q-42 -30 -80.5 -44t-80.5 -14q-60 0 -93 30t-33 81q0 5 0.5 11t2.5 17l5 27.5t9 42.5l-64 -50h-2l-31 64l117 82l51 246
q19 89 70 136.5t120 47.5q52 0 84.5 -33.5t32.5 -83.5zM393 598q0 20 -10 34t-26 14q-20 0 -35.5 -18.5t-25.5 -63.5l-42 -195q25 21 49.5 48.5t44.5 57.5t32.5 61.5t12.5 61.5z" />
    <glyph glyph-name="trademark" unicode="&#x2122;" horiz-adv-x="760" 
d="M689 296v326h-1l-89 -326h-60l-85 326h-2v-326h-68v412h115l73 -283l74 283h116v-412h-73zM263 639v-343h-80v343h-78v69h235v-69h-77z" />
    <glyph glyph-name="Omega" unicode="&#x2126;" horiz-adv-x="759" 
d="M375 0l40 189q40 7 73.5 26.5t59 47.5t43 62t25.5 72q3 13 4 25.5t1 24.5q0 36 -11 67t-32.5 53.5t-52.5 35.5t-70 13q-47 0 -89 -17.5t-76 -47.5t-57.5 -70t-32.5 -85q-6 -30 -6 -57q0 -57 28.5 -95.5t87.5 -54.5l-40 -189h-274l22 106h172l7 32q-66 22 -95.5 71.5
t-29.5 115.5q0 38 9 79q15 69 53 127.5t91.5 100.5t118 65.5t132.5 23.5q59 0 108.5 -17.5t85 -49t55.5 -77t20 -100.5q0 -32 -8 -70q-10 -47 -28.5 -89.5t-47 -78t-67 -61.5t-87.5 -40l-7 -32h173l-22 -106h-276z" />
    <glyph glyph-name="estimated" unicode="&#x212e;" horiz-adv-x="800" 
d="M595 402v193q-82 79 -194 79t-191 -79v-193h385zM210 355v-240q76 -78 192 -78q83 0 144 37.5t112 121.5l46 -28q-30 -48 -61.5 -82t-67.5 -55.5t-78.5 -32t-94.5 -10.5q-78 0 -141 28.5t-108 78.5t-69 116.5t-24 143.5t24 143.5t69 116t108 77.5t141 28q76 0 139.5 -27
t108.5 -75.5t70 -115.5t25 -147h-535z" />
    <glyph glyph-name="partialdiff" unicode="&#x2202;" horiz-adv-x="556" 
d="M514 358q0 -64 -10.5 -130t-38.5 -119.5t-77.5 -87.5t-128.5 -34q-50 0 -90 17.5t-69 48t-44.5 72t-15.5 90.5q0 48 15.5 88.5t44 70t68.5 46t88 16.5q42 0 76.5 -14.5t66.5 -40.5v28q1 36 -6 75.5t-24.5 72.5t-47 55t-73.5 22q-35 0 -65 -13.5t-57 -35.5l-59 70
q42 32 81.5 49t93.5 17q78 0 130 -32t83.5 -84t45 -116.5t13.5 -130.5zM397 289q-26 29 -55.5 46.5t-70.5 17.5q-31 0 -54 -12t-38 -31.5t-22.5 -46t-7.5 -54.5q0 -27 6.5 -52t20.5 -44t35.5 -30.5t51.5 -11.5q36 0 61.5 19t42 47.5t24.5 62.5t7 64z" />
    <glyph glyph-name="Delta" unicode="&#x2206;" horiz-adv-x="685" 
d="M-42 0l421 712h115l133 -712h-669zM407 581l-274 -477h358z" />
    <glyph glyph-name="product" unicode="&#x220f;" horiz-adv-x="741" 
d="M565 -214v897h-389v-897h-114v1000h617v-1000h-114z" />
    <glyph glyph-name="summation" unicode="&#x2211;" horiz-adv-x="648" 
d="M25 -214v89l303 417l-290 405v89h573v-103h-422l275 -390l-293 -404h453v-103h-599z" />
    <glyph glyph-name="minus" unicode="&#x2212;" horiz-adv-x="666" 
d="M604 354v-102h-542v102h542z" />
    <glyph glyph-name="uni2215" unicode="&#x2215;" horiz-adv-x="100" 
d="M-162 -5l407 741l54 -18l-406 -739z" />
    <glyph glyph-name="uni2219" unicode="&#x2219;" horiz-adv-x="237" 
d="M191 272q0 -33 -20.5 -56t-52.5 -23q-28 0 -43 18.5t-15 42.5q0 15 5.5 29t15 25t22.5 18t28 7q29 0 44.5 -17.5t15.5 -43.5z" />
    <glyph glyph-name="radical" unicode="&#x221a;" horiz-adv-x="537" 
d="M338 -214h-106l-152 317l-51 -25l-41 90l148 68l129 -273l168 823h116z" />
    <glyph glyph-name="infinity" unicode="&#x221e;" horiz-adv-x="815" 
d="M770 263q0 -38 -11.5 -71t-33.5 -58t-53 -39t-71 -14q-31 0 -58 9.5t-50.5 25t-44.5 35.5t-40 42q-21 -22 -41.5 -42t-43 -35.5t-49 -24.5t-58.5 -9q-39 0 -71 14t-54 38t-34 57t-12 71q0 37 11.5 70t33 57t52.5 38t70 14q33 0 60 -10t51 -26.5t44.5 -38t40.5 -44.5
q19 23 39.5 44.5t44 38.5t51 27t59.5 10q39 0 70 -14t53 -38t33.5 -57t11.5 -70zM680 260q0 36 -21 61t-59 25q-20 0 -38.5 -8.5t-36 -21.5t-33 -28.5t-27.5 -28.5q13 -15 28.5 -29.5t32.5 -26t36.5 -19t40.5 -7.5q37 0 57 24t20 59zM350 259q-12 13 -28 28t-34 28
t-37.5 21.5t-38.5 8.5q-35 0 -56 -25.5t-21 -59.5q0 -37 21.5 -59.5t58.5 -22.5q19 0 38 7.5t36.5 19.5t33 26t27.5 28z" />
    <glyph glyph-name="integral" unicode="&#x222b;" horiz-adv-x="611" 
d="M486 709q0 -23 -14.5 -37.5t-37.5 -14.5q-24 0 -34.5 11.5t-16 25t-10 25t-15.5 11.5t-13.5 -9t-2.5 -17q0 -31 2 -61t2 -61v-589q0 -38 -5 -75t-20 -66.5t-43.5 -48t-75.5 -18.5q-18 0 -37.5 4t-36 13t-27 23.5t-10.5 35.5q0 23 15 38t38 15q24 0 34.5 -11.5t16 -25
t9.5 -25t14 -11.5q8 0 11.5 5.5t5 13t1 15t-0.5 12.5q0 26 -2 51t-2 51v506q0 28 -0.5 60.5t1.5 65t9.5 62.5t23.5 53t43 36.5t68 13.5q17 0 36.5 -4.5t36 -13.5t27 -23.5t10.5 -35.5z" />
    <glyph glyph-name="approxequal" unicode="&#x2248;" horiz-adv-x="666" 
d="M602 451q-3 -33 -12.5 -64t-27.5 -55t-44.5 -38.5t-64.5 -14.5q-30 0 -65.5 10.5t-70.5 24.5q-35 13 -66 23.5t-51 10.5q-28 0 -43.5 -22.5t-20.5 -46.5h-71q3 32 12.5 62.5t27.5 55.5q17 25 43.5 40t62.5 15q32 0 64.5 -10t65.5 -23q33 -12 65.5 -22.5t62.5 -10.5
q28 0 42.5 20t19.5 45h71zM600 243q-3 -33 -12.5 -64t-27 -55t-44 -38.5t-64.5 -14.5q-29 0 -65 10.5t-71 24.5q-35 13 -66 23.5t-52 10.5q-28 0 -43.5 -22t-20.5 -46h-71q3 31 12.5 62t27 55.5t44 39.5t62.5 15q32 0 64.5 -10t65.5 -23q33 -12 65.5 -22.5t62.5 -10.5
q28 0 42.5 20t19.5 45h71z" />
    <glyph glyph-name="notequal" unicode="&#x2260;" horiz-adv-x="666" 
d="M322 162l-74 -144l-88 45l50 99h-130v102h181l38 78h-219v102h270l72 143l90 -44l-51 -99h125v-102h-176l-38 -78h214v-102h-264z" />
    <glyph glyph-name="lessequal" unicode="&#x2264;" horiz-adv-x="666" 
d="M80 314v108l506 177v-113l-359 -118l359 -112v-112zM80 4v107h506v-107h-506z" />
    <glyph glyph-name="greaterequal" unicode="&#x2265;" horiz-adv-x="666" 
d="M80 256l359 112l-359 118v113l506 -177v-108l-506 -170v112zM80 111h506v-107h-506v107z" />
    <glyph glyph-name="lozenge" unicode="&#x25ca;" horiz-adv-x="593" 
d="M346 -35h-100l-177 391l177 391h100l178 -391zM296 641l-118 -285l118 -286l119 286z" />
    <glyph glyph-name="dotlessj" unicode="&#xf6be;" horiz-adv-x="242" 
d="M128 -51q-7 -40 -19.5 -74.5t-33.5 -60t-52 -40t-75 -14.5q-11 0 -23.5 1.5t-23.5 4.5l16 100q7 -2 14 -3t13 -1q37 0 52 27.5t23 68.5l97 550h111z" />
    <glyph glyph-name="commaaccent" unicode="&#xf6c3;" horiz-adv-x="243" 
d="M32 -232h-77l89 187h89z" />
    <glyph glyph-name="uniF8FF" unicode="&#xf8ff;" horiz-adv-x="512" 
d="M222 117v67h56v-67h-56zM225 234l-2 17q0 56 13 81q7 13 18 27.5t28 31.5q16 15 26 26.5t15 21t7 18t2 17.5q0 36 -22.5 60.5t-53.5 24.5t-53.5 -22t-28.5 -73l-50 8q7 72 44 104.5t91 32.5t89 -35.5t35 -95.5q0 -32 -12.5 -58.5t-50.5 -61.5q-37 -33 -43 -52
q-6 -20 -6 -72h-46zM462 50v617h-412v-617h412zM512 718v-718h-512v718h512z" />
    <glyph glyph-name="fi" unicode="&#xfb01;" horiz-adv-x="508" 
d="M522 666q0 -32 -20 -54t-51 -22q-28 0 -43 17.5t-15 40.5q0 30 20 53.5t51 23.5q27 0 42.5 -16.5t15.5 -42.5zM400 0h-107l88 508h108zM346 682q-5 2 -12 3t-15 1q-19 0 -32.5 -9t-22.5 -23t-15 -32.5t-9 -37.5l-13 -76h80l-14 -86h-80l-74 -422h-104l73 422h-65l14 86
h65l14 76q7 40 20.5 75t34.5 61t51.5 41t71.5 15q13 0 25.5 -1.5t21.5 -4.5z" />
    <glyph glyph-name="fl" unicode="&#xfb02;" horiz-adv-x="507" 
d="M401 0h-108l130 756h109zM346 682q-5 2 -12 3t-15 1q-19 0 -32.5 -9t-22.5 -23t-15 -32.5t-9 -37.5l-13 -76h80l-14 -86h-80l-74 -422h-104l73 422h-65l14 86h65l14 76q7 40 20.5 75t34.5 61t51.5 41t71.5 15q13 0 25.5 -1.5t21.5 -4.5z" />
    </font>
</defs>
</svg>
